<svg width="48" height="48" viewBox="0 0 48 48" fill="none" xmlns="http://www.w3.org/2000/svg">
<g clip-path="url(#clip0_1904_1692)">
<path d="M0 24V48H24H48V24V-2.74554e-06H24H0V24ZM8.33829 23.5817C9.10629 23.9246 9.55886 24.6446 9.55886 25.5086C9.56571 26.3657 9.18857 26.976 8.42057 27.36C8.07771 27.5246 7.91314 27.5657 7.54286 27.5657C6.87086 27.5657 6.48 27.408 6.03429 26.9554C5.55429 26.4686 5.38971 26.0434 5.43086 25.3851C5.51314 23.9246 7.008 22.9989 8.33829 23.5817ZM23.4171 23.6297C24.4183 24.1029 24.864 25.3303 24.4046 26.3314C24.1577 26.8663 23.9177 27.1131 23.4377 27.3531C22.8823 27.6343 22.1623 27.6549 21.6343 27.4011C20.3657 26.8046 20.0229 25.1726 20.9417 24.0891C21.504 23.424 22.5669 23.2251 23.4171 23.6297ZM29.3829 23.616C29.7943 23.8011 30.1851 24.192 30.3977 24.6171C30.6309 25.0903 30.6103 25.9611 30.3634 26.4411C29.5474 27.9977 27.312 27.9291 26.5783 26.3383C26.3589 25.8583 26.3794 25.0423 26.6194 24.576C27.1611 23.5474 28.3406 23.136 29.3829 23.616ZM41.8629 33.2229C42.3497 33.5246 42.6034 34.0251 42.5691 34.608C42.5349 35.1634 42.288 35.5406 41.7669 35.808L41.4034 36H24.0549C11.2526 36 6.63086 35.9794 6.43886 35.9246C5.84229 35.7394 5.41714 35.1497 5.41714 34.5051C5.41714 33.8263 5.89714 33.2023 6.528 33.0514C6.65143 33.0171 14.5783 33.0034 24.144 33.0034L41.5337 33.0171L41.8629 33.2229ZM32.928 39.2571C33.2709 39.4971 33.6 40.08 33.6 40.4434C33.6 41.0194 33.264 41.5817 32.7703 41.8286C32.5097 41.9657 32.3109 41.9657 19.5086 41.9657C6.85029 41.9657 6.50057 41.9589 6.25371 41.8354C5.12914 41.2594 5.14286 39.6754 6.27429 39.1474C6.54171 39.024 7.008 39.0171 19.5909 39.0377L32.6263 39.0514L32.928 39.2571Z" fill="black"/>
</g>
<defs>
<clipPath id="clip0_1904_1692">
<rect width="48" height="48" fill="white"/>
</clipPath>
</defs>
</svg>
