<svg width="1357" height="385" viewBox="0 0 1357 385" fill="none" xmlns="http://www.w3.org/2000/svg">
<path d="M0 317.752C0 317.752 121 317.751 182 317.752C218.5 317.753 262.339 283.751 287 283.751C309.5 283.751 310.5 317.752 334 317.751C348.5 317.751 400.5 316.752 400.5 277.752C400.5 225.25 325.5 226.25 325.5 277.752C325.5 317.752 382 317.752 395 317.752C448 317.752 449.5 317.546 470 317.751C499 318.042 515.5 310.25 515.5 289.752C515.5 258.25 468 259.25 468 289.752C468 321.25 502.483 311.555 520 322.75C541.591 336.55 549.5 377.997 568.5 382.25C604.856 390.39 637.671 313.504 690.5 317.752C802.5 326.759 815.5 278 815.5 250.5C815.5 167 688.5 164 688.5 250.5C688.5 302.5 734 320 797 317.752C819.486 316.95 856 350.5 870 350.5C889 350.5 910 317.751 941.5 317.751C1063.5 317.751 1208 293.736 1208 154.761C1208 -47.7856 910 -45.7063 910 154.761C910 211.5 941.5 267.663 1001 292.5C1053.01 314.209 1128.6 317.751 1235 317.751C1235 317.751 1252 317.751 1354 317.751" stroke="#212121" stroke-width="3" stroke-dasharray="3 3"/>
<path d="M1354 317.751C1252 317.751 1235 317.751 1235 317.751C1128.6 317.751 1053.01 314.209 1001 292.5C941.5 267.663 910 211.5 910 154.761C910 -45.7063 1208 -47.7856 1208 154.761C1208 293.736 1063.5 317.751 941.5 317.751" stroke="url(#paint0_linear_2020_1628)" stroke-width="3"/>
<path d="M1331.63 340.5L1354.25 317.873L1331.63 295.245" stroke="#8459FF" stroke-width="3"/>
<defs>
<linearGradient id="paint0_linear_2020_1628" x1="899.5" y1="329" x2="1244.5" y2="333" gradientUnits="userSpaceOnUse">
<stop stop-color="#212121"/>
<stop offset="0.874104" stop-color="#212121"/>
<stop offset="1" stop-color="#7B61FF"/>
</linearGradient>
</defs>
</svg>
