<svg width="1263" height="134" viewBox="0 0 1263 134" fill="none" xmlns="http://www.w3.org/2000/svg">
<path d="M380.5 126.501L380.364 126.982L380.5 126.501ZM426.5 132.764L426.5 132.264L426.5 132.764ZM319.5 100.763L319.411 101.256L319.5 100.763ZM551 100.763L551.148 100.286L551 100.763ZM1122.5 51.5002L1122.28 51.9513L1122.28 51.9513L1122.5 51.5002ZM1262.86 54.8501C1263.05 54.6524 1263.05 54.3359 1262.85 54.1431L1259.63 51.0013C1259.43 50.8085 1259.11 50.8124 1258.92 51.0101C1258.73 51.2078 1258.73 51.5244 1258.93 51.7172L1261.79 54.5099L1259 57.3736C1258.81 57.5713 1258.81 57.8878 1259.01 58.0806C1259.21 58.2734 1259.52 58.2695 1259.72 58.0718L1262.86 54.8501ZM1179.5 55.5424L1179.49 55.0423L1179.48 55.0428L1179.5 55.5424ZM427.5 122L427.834 122.372L427.5 122ZM435.5 100.763C435.5 91.8164 432.229 85.0975 427.289 80.6273C422.357 76.1647 415.794 73.9715 409.248 74.0033C402.701 74.0351 396.14 76.2919 391.211 80.7685C386.273 85.2528 383 91.9392 383 100.763H384C384 92.2059 387.165 85.7935 391.883 81.5088C396.61 77.2164 402.924 75.034 409.252 75.0033C415.581 74.9726 421.893 77.0935 426.618 81.3688C431.334 85.6363 434.5 92.0788 434.5 100.763H435.5ZM319.411 101.256C333.834 103.86 344.155 108.891 353.32 113.971C362.471 119.043 370.542 124.212 380.364 126.982L380.636 126.02C370.958 123.29 363.029 118.209 353.805 113.096C344.595 107.992 334.166 102.904 319.589 100.271L319.411 101.256ZM0 132.764C0 133.264 0.000505447 133.264 0.00151441 133.264C0.00252338 133.264 0.00403586 133.264 0.00604993 133.264C0.008064 133.264 0.0105797 133.264 0.013595 133.264C0.0166103 133.264 0.0201253 133.264 0.024138 133.264C0.0281507 133.264 0.0326611 133.264 0.0376673 133.264C0.0426736 133.264 0.0481756 133.264 0.0541715 133.264C0.0601674 133.264 0.0666572 133.264 0.0736389 133.264C0.0806206 133.264 0.0880942 133.264 0.0960579 133.264C0.104022 133.264 0.112475 133.264 0.121417 133.264C0.130359 133.264 0.139789 133.264 0.149705 133.264C0.15962 133.264 0.170023 133.264 0.180909 133.264C0.191795 133.264 0.203166 133.264 0.215019 133.264C0.226872 133.264 0.239207 133.264 0.252022 133.264C0.264838 133.264 0.278134 133.264 0.291908 133.264C0.305682 133.264 0.319935 133.264 0.334664 133.264C0.349393 133.264 0.364599 133.264 0.38028 133.264C0.39596 133.264 0.412115 133.264 0.428742 133.264C0.44537 133.264 0.46247 133.264 0.480041 133.264C0.497612 133.264 0.515653 133.264 0.534164 133.264C0.552674 133.264 0.571653 133.264 0.591099 133.264C0.610545 133.264 0.630458 133.264 0.650836 133.264C0.671214 133.264 0.692056 133.264 0.713362 133.264C0.734668 133.264 0.756437 133.264 0.778666 133.264C0.800896 133.264 0.823587 133.264 0.846737 133.264C0.869887 133.264 0.893496 133.264 0.917562 133.264C0.941629 133.264 0.966152 133.264 0.991131 133.264C1.01611 133.264 1.04154 133.264 1.06743 133.264C1.09332 133.264 1.11966 133.264 1.14645 133.264C1.17324 133.264 1.20049 133.264 1.22818 133.264C1.25587 133.264 1.28402 133.264 1.31261 133.264C1.3412 133.264 1.37023 133.264 1.39972 133.264C1.4292 133.264 1.45913 133.264 1.4895 133.264C1.51987 133.264 1.55069 133.264 1.58195 133.264C1.61321 133.264 1.64491 133.264 1.67705 133.264C1.70919 133.264 1.74177 133.264 1.77478 133.264C1.8078 133.264 1.84126 133.264 1.87515 133.264C1.90904 133.264 1.94337 133.264 1.97813 133.264C2.01289 133.264 2.04808 133.264 2.08371 133.264C2.11934 133.264 2.1554 133.264 2.19189 133.264C2.22838 133.264 2.2653 133.264 2.30265 133.264C2.33999 133.264 2.37777 133.264 2.41597 133.264C2.45418 133.264 2.49281 133.264 2.53186 133.264C2.57091 133.264 2.61039 133.264 2.65029 133.264C2.69019 133.264 2.73052 133.264 2.77126 133.264C2.812 133.264 2.85317 133.264 2.89475 133.264C2.93633 133.264 2.97833 133.264 3.02075 133.264C3.06317 133.264 3.106 133.264 3.14925 133.264C3.1925 133.264 3.23617 133.264 3.28024 133.264C3.32432 133.264 3.36881 133.264 3.41371 133.264C3.45861 133.264 3.50392 133.264 3.54964 133.264C3.59536 133.264 3.64149 133.264 3.68803 133.264C3.73457 133.264 3.78151 133.264 3.82886 133.264C3.87621 133.264 3.92396 133.264 3.97212 133.264C4.02027 133.264 4.06883 133.264 4.1178 133.264C4.16676 133.264 4.21612 133.264 4.26588 133.264C4.31564 133.264 4.3658 133.264 4.41636 133.264C4.46692 133.264 4.51788 133.264 4.56923 133.264C4.62058 133.264 4.67233 133.264 4.72447 133.264C4.77661 133.264 4.82914 133.264 4.88207 133.264C4.93499 133.264 4.98831 133.264 5.04202 133.264C5.09572 133.264 5.14982 133.264 5.2043 133.264C5.25879 133.264 5.31366 133.264 5.36892 133.264C5.42418 133.264 5.47982 133.264 5.53585 133.264C5.59187 133.264 5.64828 133.264 5.70508 133.264C5.76187 133.264 5.81905 133.264 5.8766 133.264C5.93416 133.264 5.99209 133.264 6.05041 133.264C6.10872 133.264 6.16741 133.264 6.22648 133.264C6.28555 133.264 6.34499 133.264 6.40481 133.264C6.46462 133.264 6.52482 133.264 6.58538 133.264C6.64595 133.264 6.70688 133.264 6.76819 133.264C6.8295 133.264 6.89117 133.264 6.95322 133.264C7.01527 133.264 7.07768 133.264 7.14046 133.264C7.20324 133.264 7.26639 133.264 7.3299 133.264C7.39341 133.264 7.45729 133.264 7.52153 133.264C7.58577 133.264 7.65037 133.264 7.71533 133.264C7.78029 133.264 7.84562 133.264 7.9113 133.264C7.97698 133.264 8.04302 133.264 8.10942 133.264C8.17582 133.264 8.24257 133.264 8.30968 133.264C8.37679 133.264 8.44426 133.264 8.51207 133.264C8.57989 133.264 8.64806 133.264 8.71658 133.264C8.7851 133.264 8.85398 133.264 8.9232 133.264C8.99242 133.264 9.06199 133.264 9.13191 133.264C9.20183 133.264 9.27209 133.264 9.3427 133.264C9.41331 133.264 9.48427 133.264 9.55557 133.264C9.62687 133.264 9.69851 133.264 9.77049 133.264C9.84248 133.264 9.9148 133.264 9.98747 133.264C10.0601 133.264 10.1331 133.264 10.2065 133.264C10.2798 133.264 10.3535 133.264 10.4275 133.264C10.5015 133.264 10.5759 133.264 10.6506 133.264C10.7253 133.264 10.8003 133.264 10.8756 133.264C10.951 133.264 11.0267 133.264 11.1027 133.264C11.1787 133.264 11.255 133.264 11.3317 133.264C11.4084 133.264 11.4854 133.264 11.5627 133.264C11.64 133.264 11.7176 133.264 11.7956 133.264C11.8736 133.264 11.9519 133.264 12.0305 133.264C12.1091 133.264 12.1881 133.264 12.2673 133.264C12.3466 133.264 12.4262 133.264 12.5061 133.264C12.586 133.264 12.6662 133.264 12.7467 133.264C12.8273 133.264 12.9081 133.264 12.9893 133.264C13.0704 133.264 13.1519 133.264 13.2337 133.264C13.3155 133.264 13.3976 133.264 13.48 133.264C13.5624 133.264 13.6452 133.264 13.7282 133.264C13.8112 133.264 13.8946 133.264 13.9782 133.264C14.0619 133.264 14.1458 133.264 14.2301 133.264C14.3144 133.264 14.3989 133.264 14.4838 133.264C14.5687 133.264 14.6538 133.264 14.7393 133.264C14.8248 133.264 14.9106 133.264 14.9966 133.264C15.0827 133.264 15.1691 133.264 15.2557 133.264C15.3424 133.264 15.4294 133.264 15.5166 133.264C15.6039 133.264 15.6915 133.264 15.7793 133.264C15.8672 133.264 15.9553 133.264 16.0437 133.264C16.1322 133.264 16.2209 133.264 16.3099 133.264C16.3989 133.264 16.4882 133.264 16.5778 133.264C16.6674 133.264 16.7573 133.264 16.8474 133.264C16.9376 133.264 17.0281 133.264 17.1188 133.264C17.2095 133.264 17.3005 133.264 17.3918 133.264C17.4831 133.264 17.5747 133.264 17.6666 133.264C17.7584 133.264 17.8506 133.264 17.943 133.264C18.0354 133.264 18.1281 133.264 18.2211 133.264C18.314 133.264 18.4073 133.264 18.5008 133.264C18.5943 133.264 18.6881 133.264 18.7822 133.264C18.8762 133.264 18.9706 133.264 19.0652 133.264C19.1598 133.264 19.2547 133.264 19.3498 133.264C19.445 133.264 19.5404 133.264 19.6361 133.264C19.7317 133.264 19.8277 133.264 19.9239 133.264C20.0201 133.264 20.1166 133.264 20.2133 133.264C20.3101 133.264 20.4071 133.264 20.5043 133.264C20.6016 133.264 20.6991 133.264 20.7969 133.264C20.8947 133.264 20.9927 133.264 21.091 133.264C21.1893 133.264 21.2878 133.264 21.3866 133.264C21.4854 133.264 21.5845 133.264 21.6838 133.264C21.7831 133.264 21.8827 133.264 21.9825 133.264C22.0823 133.264 22.1824 133.264 22.2827 133.264C22.383 133.264 22.4836 133.264 22.5844 133.264C22.6852 133.264 22.7862 133.264 22.8875 133.264C22.9889 133.264 23.0904 133.264 23.1922 133.264C23.294 133.264 23.396 133.264 23.4983 133.264C23.6006 133.264 23.7031 133.264 23.8058 133.264C23.9086 133.264 24.0116 133.264 24.1148 133.264C24.218 133.264 24.3215 133.264 24.4252 133.264C24.5289 133.264 24.6329 133.264 24.737 133.264C24.8412 133.264 24.9456 133.264 25.0502 133.264C25.1549 133.264 25.2597 133.264 25.3648 133.264C25.4699 133.264 25.5753 133.264 25.6808 133.264C25.7864 133.264 25.8922 133.264 25.9982 133.264C26.1042 133.264 26.2104 133.264 26.3169 133.264C26.4233 133.264 26.53 133.264 26.6369 133.264C26.7438 133.264 26.8509 133.264 26.9583 133.264C27.0656 133.264 27.1732 133.264 27.281 133.264C27.3887 133.264 27.4967 133.264 27.605 133.264C27.7132 133.264 27.8216 133.264 27.9303 133.264C28.0389 133.264 28.1478 133.264 28.2568 133.264C28.3659 133.264 28.4752 133.264 28.5847 133.264C28.6942 133.264 28.8039 133.264 28.9138 133.264C29.0237 133.264 29.1338 133.264 29.2442 133.264C29.3545 133.264 29.465 133.264 29.5758 133.264C29.6865 133.264 29.7974 133.264 29.9086 133.264C30.0197 133.264 30.1311 133.264 30.2426 133.264C30.3542 133.264 30.4659 133.264 30.5779 133.264C30.6898 133.264 30.802 133.264 30.9143 133.264C31.0266 133.264 31.1392 133.264 31.2519 133.264C31.3647 133.264 31.4776 133.264 31.5907 133.264C31.7038 133.264 31.8171 133.264 31.9307 133.264C32.0442 133.264 32.1579 133.264 32.2717 133.264C32.3856 133.264 32.4997 133.264 32.614 133.264C32.7282 133.264 32.8427 133.264 32.9573 133.264C33.0719 133.264 33.1868 133.264 33.3018 133.264C33.4168 133.264 33.5319 133.264 33.6473 133.264C33.7627 133.264 33.8782 133.264 33.994 133.264C34.1097 133.264 34.2256 133.264 34.3417 133.264C34.4578 133.264 34.574 133.264 34.6905 133.264C34.8069 133.264 34.9235 133.264 35.0403 133.264C35.1571 133.264 35.274 133.264 35.3912 133.264C35.5083 133.264 35.6256 133.264 35.7431 133.264C35.8605 133.264 35.9782 133.264 36.096 133.264C36.2138 133.264 36.3318 133.264 36.4499 133.264C36.5681 133.264 36.6864 133.264 36.8048 133.264C36.9233 133.264 37.042 133.264 37.1608 133.264C37.2796 133.264 37.3985 133.264 37.5176 133.264C37.6368 133.264 37.756 133.264 37.8755 133.264C37.9949 133.264 38.1145 133.264 38.2343 133.264C38.354 133.264 38.4739 133.264 38.594 133.264C38.7141 133.264 38.8343 133.264 38.9546 133.264C39.075 133.264 39.1955 133.264 39.3162 133.264C39.4369 133.264 39.5577 133.264 39.6787 133.264C39.7996 133.264 39.9208 133.264 40.042 133.264C40.1633 133.264 40.2847 133.264 40.4063 133.264C40.5278 133.264 40.6495 133.264 40.7714 133.264C40.8932 133.264 41.0152 133.264 41.1373 133.264C41.2595 133.264 41.3817 133.264 41.5041 133.264C41.6265 133.264 41.7491 133.264 41.8718 133.264C41.9945 133.264 42.1173 133.264 42.2402 133.264C42.3632 133.264 42.4863 133.264 42.6095 133.264C42.7327 133.264 42.8561 133.264 42.9796 133.264C43.1031 133.264 43.2267 133.264 43.3504 133.264C43.4742 133.264 43.598 133.264 43.7221 133.264C43.8461 133.264 43.9702 133.264 44.0944 133.264C44.2187 133.264 44.3431 133.264 44.4676 133.264C44.5921 133.264 44.7167 133.264 44.8415 133.264C44.9662 133.264 45.0911 133.264 45.2161 133.264C45.3411 133.264 45.4662 133.264 45.5914 133.264C45.7166 133.264 45.842 133.264 45.9674 133.264C46.0929 133.264 46.2185 133.264 46.3442 133.264C46.4699 133.264 46.5957 133.264 46.7216 133.264C46.8475 133.264 46.9735 133.264 47.0997 133.264C47.2258 133.264 47.3521 133.264 47.4784 133.264C47.6048 133.264 47.7312 133.264 47.8578 133.264C47.9844 133.264 48.111 133.264 48.2378 133.264C48.3646 133.264 48.4915 133.264 48.6185 133.264C48.7455 133.264 48.8725 133.264 48.9997 133.264C49.1269 133.264 49.2542 133.264 49.3816 133.264C49.509 133.264 49.6365 133.264 49.7641 133.264C49.8916 133.264 50.0193 133.264 50.1471 133.264C50.2749 133.264 50.4027 133.264 50.5307 133.264C50.6586 133.264 50.7867 133.264 50.9148 133.264C51.043 133.264 51.1712 133.264 51.2995 133.264C51.4278 133.264 51.5563 133.264 51.6848 133.264C51.8133 133.264 51.9418 133.264 52.0705 133.264C52.1992 133.264 52.3279 133.264 52.4568 133.264C52.5856 133.264 52.7145 133.264 52.8435 133.264C52.9725 133.264 53.1016 133.264 53.2307 133.264C53.3599 133.264 53.4891 133.264 53.6185 133.264C53.7478 133.264 53.8772 133.264 54.0066 133.264C54.1361 133.264 54.2656 133.264 54.3953 133.264C54.5249 133.264 54.6546 133.264 54.7843 133.264C54.9141 133.264 55.0439 133.264 55.1738 133.264C55.3037 133.264 55.4337 133.264 55.5637 133.264C55.6938 133.264 55.8239 133.264 55.954 133.264C56.0842 133.264 56.2144 133.264 56.3447 133.264C56.475 133.264 56.6054 133.264 56.7358 133.264C56.8663 133.264 56.9967 133.264 57.1273 133.264C57.2578 133.264 57.3884 133.264 57.5191 133.264C57.6498 133.264 57.7805 133.264 57.9113 133.264C58.042 133.264 58.1729 133.264 58.3038 133.264C58.4347 133.264 58.5656 133.264 58.6966 133.264C58.8276 133.264 58.9586 133.264 59.0897 133.264C59.2208 133.264 59.352 133.264 59.4831 133.264C59.6143 133.264 59.7456 133.264 59.8769 133.264C60.0082 133.264 60.1395 133.264 60.2709 133.264C60.4022 133.264 60.5337 133.264 60.6651 133.264C60.7966 133.264 60.9281 133.264 61.0596 133.264C61.1912 133.264 61.3228 133.264 61.4544 133.264C61.586 133.264 61.7177 133.264 61.8494 133.264C61.9811 133.264 62.1128 133.264 62.2446 133.264C62.3764 133.264 62.5082 133.264 62.64 133.264C62.7719 133.264 62.9037 133.264 63.0356 133.264C63.1675 133.264 63.2995 133.264 63.4314 133.264C63.5634 133.264 63.6954 133.264 63.8274 133.264C63.9594 133.264 64.0915 133.264 64.2235 133.264C64.3556 133.264 64.4877 133.264 64.6198 133.264C64.7519 133.264 64.8841 133.264 65.0162 133.264C65.1484 133.264 65.2806 133.264 65.4128 133.264C65.545 133.264 65.6772 133.264 65.8094 133.264C65.9417 133.264 66.0739 133.264 66.2062 133.264C66.3385 133.264 66.4708 133.264 66.6031 133.264C66.7354 133.264 66.8677 133.264 67 133.264C67.1323 133.264 67.2647 133.264 67.397 133.264C67.5294 133.264 67.6617 133.264 67.7941 133.264C67.9264 133.264 68.0588 133.264 68.1912 133.264C68.3236 133.264 68.4559 133.264 68.5883 133.264C68.7207 133.264 68.8531 133.264 68.9855 133.264C69.1179 133.264 69.2503 133.264 69.3827 133.264C69.515 133.264 69.6474 133.264 69.7798 133.264C69.9122 133.264 70.0446 133.264 70.177 133.264C70.3094 133.264 70.4418 133.264 70.5741 133.264C70.7065 133.264 70.8389 133.264 70.9712 133.264C71.1036 133.264 71.2359 133.264 71.3683 133.264C71.5006 133.264 71.633 133.264 71.7653 133.264C71.8976 133.264 72.0299 133.264 72.1622 133.264C72.2945 133.264 72.4268 133.264 72.5591 133.264C72.6913 133.264 72.8236 133.264 72.9558 133.264C73.088 133.264 73.2203 133.264 73.3524 133.264C73.4846 133.264 73.6168 133.264 73.749 133.264C73.8811 133.264 74.0133 133.264 74.1454 133.264C74.2775 133.264 74.4096 133.264 74.5416 133.264C74.6737 133.264 74.8057 133.264 74.9377 133.264C75.0698 133.264 75.2017 133.264 75.3337 133.264C75.4656 133.264 75.5976 133.264 75.7295 133.264C75.8614 133.264 75.9932 133.264 76.1251 133.264C76.2569 133.264 76.3887 133.264 76.5204 133.264C76.6522 133.264 76.7839 133.264 76.9156 133.264C77.0473 133.264 77.179 133.264 77.3106 133.264C77.4422 133.264 77.5738 133.264 77.7053 133.264C77.8368 133.264 77.9683 133.264 78.0998 133.264C78.2312 133.264 78.3627 133.264 78.494 133.264C78.6254 133.264 78.7567 133.264 78.888 133.264C79.0193 133.264 79.1505 133.264 79.2817 133.264C79.4128 133.264 79.544 133.264 79.675 133.264C79.8061 133.264 79.9372 133.264 80.0681 133.264C80.1991 133.264 80.33 133.264 80.4609 133.264C80.5918 133.264 80.7226 133.264 80.8534 133.264C80.9841 133.264 81.1148 133.264 81.2455 133.264C81.3761 133.264 81.5067 133.264 81.6372 133.264C81.7678 133.264 81.8982 133.264 82.0287 133.264C82.1591 133.264 82.2894 133.264 82.4197 133.264C82.55 133.264 82.6802 133.264 82.8103 133.264C82.9405 133.264 83.0706 133.264 83.2006 133.264C83.3306 133.264 83.4606 133.264 83.5904 133.264C83.7203 133.264 83.8501 133.264 83.9799 133.264C84.1096 133.264 84.2393 133.264 84.3689 133.264C84.4985 133.264 84.628 133.264 84.7574 133.264C84.8869 133.264 85.0163 133.264 85.1456 133.264C85.2749 133.264 85.4041 133.264 85.5332 133.264C85.6623 133.264 85.7914 133.264 85.9204 133.264C86.0494 133.264 86.1783 133.264 86.3071 133.264C86.4359 133.264 86.5646 133.264 86.6933 133.264C86.8219 133.264 86.9505 133.264 87.0789 133.264C87.2074 133.264 87.3358 133.264 87.4641 133.264C87.5924 133.264 87.7206 133.264 87.8487 133.264C87.9768 133.264 88.1048 133.264 88.2328 133.264C88.3607 133.264 88.4886 133.264 88.6163 133.264C88.744 133.264 88.8717 133.264 88.9992 133.264C89.1268 133.264 89.2543 133.264 89.3816 133.264C89.509 133.264 89.6362 133.264 89.7634 133.264C89.8906 133.264 90.0176 133.264 90.1446 133.264C90.2715 133.264 90.3984 133.264 90.5251 133.264C90.6519 133.264 90.7785 133.264 90.9051 133.264C91.0316 133.264 91.1581 133.264 91.2844 133.264C91.4107 133.264 91.5369 133.264 91.663 133.264C91.7891 133.264 91.9151 133.264 92.041 133.264C92.1669 133.264 92.2927 133.264 92.4183 133.264C92.544 133.264 92.6695 133.264 92.795 133.264C92.9204 133.264 93.0457 133.264 93.1709 133.264C93.2961 133.264 93.4212 133.264 93.5461 133.264C93.6711 133.264 93.7959 133.264 93.9206 133.264C94.0454 133.264 94.17 133.264 94.2944 133.264C94.4189 133.264 94.5432 133.264 94.6675 133.264C94.7917 133.264 94.9158 133.264 95.0398 133.264C95.1637 133.264 95.2876 133.264 95.4113 133.264C95.535 133.264 95.6586 133.264 95.782 133.264C95.9055 133.264 96.0288 133.264 96.152 133.264C96.2752 133.264 96.3982 133.264 96.5211 133.264C96.6441 133.264 96.7668 133.264 96.8895 133.264C97.0121 133.264 97.1346 133.264 97.257 133.264C97.3794 133.264 97.5016 133.264 97.6237 133.264C97.7458 133.264 97.8677 133.264 97.9895 133.264C98.1113 133.264 98.233 133.264 98.3545 133.264C98.476 133.264 98.5974 133.264 98.7186 133.264C98.8399 133.264 98.9609 133.264 99.0819 133.264C99.2028 133.264 99.3236 133.264 99.4442 133.264C99.5648 133.264 99.6853 133.264 99.8056 133.264C99.926 133.264 100.046 133.264 100.166 133.264C100.286 133.264 100.406 133.264 100.526 133.264C100.645 133.264 100.765 133.264 100.884 133.264C101.004 133.264 101.123 133.264 101.242 133.264C101.361 133.264 101.48 133.264 101.599 133.264C101.718 133.264 101.836 133.264 101.955 133.264C102.073 133.264 102.191 133.264 102.309 133.264C102.428 133.264 102.545 133.264 102.663 133.264C102.781 133.264 102.899 133.264 103.016 133.264C103.133 133.264 103.251 133.264 103.368 133.264C103.485 133.264 103.602 133.264 103.719 133.264C103.835 133.264 103.952 133.264 104.068 133.264C104.185 133.264 104.301 133.264 104.417 133.264C104.533 133.264 104.649 133.264 104.764 133.264C104.88 133.264 104.996 133.264 105.111 133.264C105.226 133.264 105.341 133.264 105.456 133.264C105.571 133.264 105.686 133.264 105.801 133.264C105.915 133.264 106.03 133.264 106.144 133.264C106.258 133.264 106.372 133.264 106.486 133.264C106.6 133.264 106.713 133.264 106.827 133.264C106.94 133.264 107.053 133.264 107.167 133.264C107.28 133.264 107.392 133.264 107.505 133.264C107.618 133.264 107.73 133.264 107.843 133.264C107.955 133.264 108.067 133.264 108.179 133.264C108.291 133.264 108.402 133.264 108.514 133.264C108.625 133.264 108.737 133.264 108.848 133.264C108.959 133.264 109.07 133.264 109.181 133.264C109.291 133.264 109.402 133.264 109.512 133.264C109.622 133.264 109.732 133.264 109.842 133.264C109.952 133.264 110.062 133.264 110.171 133.264C110.281 133.264 110.39 133.264 110.499 133.264C110.608 133.264 110.717 133.264 110.825 133.264C110.934 133.264 111.042 133.264 111.15 133.264C111.258 133.264 111.366 133.264 111.474 133.264C111.582 133.264 111.689 133.264 111.797 133.264C111.904 133.264 112.011 133.264 112.118 133.264C112.225 133.264 112.331 133.264 112.438 133.264C112.544 133.264 112.65 133.264 112.756 133.264C112.862 133.264 112.968 133.264 113.073 133.264C113.179 133.264 113.284 133.264 113.389 133.264C113.494 133.264 113.599 133.264 113.703 133.264C113.808 133.264 113.912 133.264 114.017 133.264C114.121 133.264 114.224 133.264 114.328 133.264C114.432 133.264 114.535 133.264 114.638 133.264C114.741 133.264 114.844 133.264 114.947 133.264C115.05 133.264 115.152 133.264 115.254 133.264C115.357 133.264 115.459 133.264 115.56 133.264C115.662 133.264 115.764 133.264 115.865 133.264C115.966 133.264 116.067 133.264 116.168 133.264C116.268 133.264 116.369 133.264 116.469 133.264C116.569 133.264 116.669 133.264 116.769 133.264C116.869 133.264 116.968 133.264 117.068 133.264C117.167 133.264 117.266 133.264 117.365 133.264C117.463 133.264 117.562 133.264 117.66 133.264C117.758 133.264 117.856 133.264 117.954 133.264C118.052 133.264 118.149 133.264 118.246 133.264C118.344 133.264 118.44 133.264 118.537 133.264C118.634 133.264 118.73 133.264 118.826 133.264C118.922 133.264 119.018 133.264 119.114 133.264C119.21 133.264 119.305 133.264 119.4 133.264C119.495 133.264 119.59 133.264 119.684 133.264C119.779 133.264 119.873 133.264 119.967 133.264C120.061 133.264 120.155 133.264 120.248 133.264C120.342 133.264 120.435 133.264 120.528 133.264C120.621 133.264 120.713 133.264 120.806 133.264C120.898 133.264 120.99 133.264 121.082 133.264C121.174 133.264 121.265 133.264 121.356 133.264C121.448 133.264 121.538 133.264 121.629 133.264C121.72 133.264 121.81 133.264 121.9 133.264C121.99 133.264 122.08 133.264 122.17 133.264C122.259 133.264 122.348 133.264 122.437 133.264C122.526 133.264 122.615 133.264 122.703 133.264C122.792 133.264 122.88 133.264 122.967 133.264C123.055 133.264 123.143 133.264 123.23 133.264C123.317 133.264 123.404 133.264 123.49 133.264C123.577 133.264 123.663 133.264 123.749 133.264C123.835 133.264 123.921 133.264 124.006 133.264C124.092 133.264 124.177 133.264 124.262 133.264C124.346 133.264 124.431 133.264 124.515 133.264C124.599 133.264 124.683 133.264 124.767 133.264C124.85 133.264 124.934 133.264 125.017 133.264C125.099 133.264 125.182 133.264 125.264 133.264C125.347 133.264 125.429 133.264 125.51 133.264C125.592 133.264 125.674 133.264 125.755 133.264C125.836 133.264 125.916 133.264 125.997 133.264C126.077 133.264 126.158 133.264 126.237 133.264C126.317 133.264 126.397 133.264 126.476 133.264C126.555 133.264 126.634 133.264 126.712 133.264C126.791 133.264 126.869 133.264 126.947 133.264C127.025 133.264 127.102 133.264 127.18 133.264C127.257 133.264 127.334 133.264 127.41 133.264C127.487 133.264 127.563 133.264 127.639 133.264C127.715 133.264 127.791 133.264 127.866 133.264C127.941 133.264 128.016 133.264 128.091 133.264C128.165 133.264 128.24 133.264 128.313 133.264C128.387 133.264 128.461 133.264 128.534 133.264C128.607 133.264 128.68 133.264 128.753 133.264C128.825 133.264 128.898 133.264 128.97 133.264C129.041 133.264 129.113 133.264 129.184 133.264C129.255 133.264 129.326 133.264 129.397 133.264C129.467 133.264 129.538 133.264 129.607 133.264C129.677 133.264 129.747 133.264 129.816 133.264C129.885 133.264 129.954 133.264 130.022 133.264C130.09 133.264 130.159 133.264 130.226 133.264C130.294 133.264 130.361 133.264 130.428 133.264C130.495 133.264 130.562 133.264 130.628 133.264C130.695 133.264 130.761 133.264 130.826 133.264C130.892 133.264 130.957 133.264 131.022 133.264C131.087 133.264 131.151 133.264 131.215 133.264C131.279 133.264 131.343 133.264 131.407 133.264C131.47 133.264 131.533 133.264 131.596 133.264C131.658 133.264 131.721 133.264 131.783 133.264C131.845 133.264 131.906 133.264 131.967 133.264C132.029 133.264 132.089 133.264 132.15 133.264C132.21 133.264 132.271 133.264 132.33 133.264C132.39 133.264 132.449 133.264 132.508 133.264C132.567 133.264 132.626 133.264 132.684 133.264C132.742 133.264 132.8 133.264 132.857 133.264C132.915 133.264 132.972 133.264 133.029 133.264C133.085 133.264 133.142 133.264 133.198 133.264C133.254 133.264 133.309 133.264 133.364 133.264C133.419 133.264 133.474 133.264 133.528 133.264C133.583 133.264 133.637 133.264 133.69 133.264C133.744 133.264 133.797 133.264 133.85 133.264C133.903 133.264 133.955 133.264 134.007 133.264C134.059 133.264 134.111 133.264 134.162 133.264C134.214 133.264 134.264 133.264 134.315 133.264C134.365 133.264 134.415 133.264 134.465 133.264C134.515 133.264 134.564 133.264 134.613 133.264C134.662 133.264 134.71 133.264 134.758 133.264C134.806 133.264 134.854 133.264 134.901 133.264C134.948 133.264 134.995 133.264 135.041 133.264C135.088 133.264 135.134 133.264 135.18 133.264C135.225 133.264 135.27 133.264 135.315 133.264C135.36 133.264 135.404 133.264 135.448 133.264C135.492 133.264 135.536 133.264 135.579 133.264C135.622 133.264 135.665 133.264 135.707 133.264C135.749 133.264 135.791 133.264 135.833 133.264C135.874 133.264 135.915 133.264 135.956 133.264C135.996 133.264 136.037 133.264 136.076 133.264C136.116 133.264 136.156 133.264 136.195 133.264C136.233 133.264 136.272 133.264 136.31 133.264C136.348 133.264 136.386 133.264 136.423 133.264C136.46 133.264 136.497 133.264 136.533 133.264C136.57 133.264 136.606 133.264 136.641 133.264C136.677 133.264 136.712 133.264 136.746 133.264C136.781 133.264 136.815 133.264 136.849 133.264C136.883 133.264 136.916 133.264 136.949 133.264C136.982 133.264 137.014 133.264 137.046 133.264C137.078 133.264 137.11 133.264 137.141 133.264C137.172 133.264 137.203 133.264 137.233 133.264C137.263 133.264 137.293 133.264 137.323 133.264C137.352 133.264 137.381 133.264 137.409 133.264C137.438 133.264 137.466 133.264 137.493 133.264C137.521 133.264 137.548 133.264 137.575 133.264C137.601 133.264 137.628 133.264 137.653 133.264C137.679 133.264 137.705 133.264 137.729 133.264C137.754 133.264 137.779 133.264 137.803 133.264C137.826 133.264 137.85 133.264 137.873 133.264C137.896 133.264 137.919 133.264 137.941 133.264C137.963 133.264 137.984 133.264 138.006 133.264C138.027 133.264 138.047 133.264 138.068 133.264C138.088 133.264 138.108 133.264 138.127 133.264C138.146 133.264 138.165 133.264 138.184 133.264C138.202 133.264 138.22 133.264 138.237 133.264C138.255 133.264 138.272 133.264 138.288 133.264C138.305 133.264 138.321 133.264 138.336 133.264C138.352 133.264 138.367 133.264 138.382 133.264C138.396 133.264 138.41 133.264 138.424 133.264C138.438 133.264 138.451 133.264 138.463 133.264C138.476 133.264 138.488 133.264 138.5 133.264V132.264C138.488 132.264 138.476 132.264 138.463 132.264C138.451 132.264 138.438 132.264 138.424 132.264C138.41 132.264 138.396 132.264 138.382 132.264C138.367 132.264 138.352 132.264 138.336 132.264C138.321 132.264 138.305 132.264 138.288 132.264C138.272 132.264 138.255 132.264 138.237 132.264C138.22 132.264 138.202 132.264 138.184 132.264C138.165 132.264 138.146 132.264 138.127 132.264C138.108 132.264 138.088 132.264 138.068 132.264C138.047 132.264 138.027 132.264 138.006 132.264C137.984 132.264 137.963 132.264 137.941 132.264C137.919 132.264 137.896 132.264 137.873 132.264C137.85 132.264 137.826 132.264 137.803 132.264C137.779 132.264 137.754 132.264 137.729 132.264C137.705 132.264 137.679 132.264 137.653 132.264C137.628 132.264 137.601 132.264 137.575 132.264C137.548 132.264 137.521 132.264 137.493 132.264C137.466 132.264 137.438 132.264 137.409 132.264C137.381 132.264 137.352 132.264 137.323 132.264C137.293 132.264 137.263 132.264 137.233 132.264C137.203 132.264 137.172 132.264 137.141 132.264C137.11 132.264 137.078 132.264 137.046 132.264C137.014 132.264 136.982 132.264 136.949 132.264C136.916 132.264 136.883 132.264 136.849 132.264C136.815 132.264 136.781 132.264 136.746 132.264C136.712 132.264 136.677 132.264 136.641 132.264C136.606 132.264 136.57 132.264 136.533 132.264C136.497 132.264 136.46 132.264 136.423 132.264C136.386 132.264 136.348 132.264 136.31 132.264C136.272 132.264 136.233 132.264 136.195 132.264C136.156 132.264 136.116 132.264 136.076 132.264C136.037 132.264 135.996 132.264 135.956 132.264C135.915 132.264 135.874 132.264 135.833 132.264C135.791 132.264 135.749 132.264 135.707 132.264C135.665 132.264 135.622 132.264 135.579 132.264C135.536 132.264 135.492 132.264 135.448 132.264C135.404 132.264 135.36 132.264 135.315 132.264C135.27 132.264 135.225 132.264 135.18 132.264C135.134 132.264 135.088 132.264 135.041 132.264C134.995 132.264 134.948 132.264 134.901 132.264C134.854 132.264 134.806 132.264 134.758 132.264C134.71 132.264 134.662 132.264 134.613 132.264C134.564 132.264 134.515 132.264 134.465 132.264C134.415 132.264 134.365 132.264 134.315 132.264C134.264 132.264 134.214 132.264 134.162 132.264C134.111 132.264 134.059 132.264 134.007 132.264C133.955 132.264 133.903 132.264 133.85 132.264C133.797 132.264 133.744 132.264 133.69 132.264C133.637 132.264 133.583 132.264 133.528 132.264C133.474 132.264 133.419 132.264 133.364 132.264C133.309 132.264 133.254 132.264 133.198 132.264C133.142 132.264 133.085 132.264 133.029 132.264C132.972 132.264 132.915 132.264 132.857 132.264C132.8 132.264 132.742 132.264 132.684 132.264C132.626 132.264 132.567 132.264 132.508 132.264C132.449 132.264 132.39 132.264 132.33 132.264C132.271 132.264 132.21 132.264 132.15 132.264C132.089 132.264 132.029 132.264 131.967 132.264C131.906 132.264 131.845 132.264 131.783 132.264C131.721 132.264 131.658 132.264 131.596 132.264C131.533 132.264 131.47 132.264 131.407 132.264C131.343 132.264 131.279 132.264 131.215 132.264C131.151 132.264 131.087 132.264 131.022 132.264C130.957 132.264 130.892 132.264 130.826 132.264C130.761 132.264 130.695 132.264 130.628 132.264C130.562 132.264 130.495 132.264 130.428 132.264C130.361 132.264 130.294 132.264 130.226 132.264C130.159 132.264 130.09 132.264 130.022 132.264C129.954 132.264 129.885 132.264 129.816 132.264C129.747 132.264 129.677 132.264 129.607 132.264C129.538 132.264 129.467 132.264 129.397 132.264C129.326 132.264 129.255 132.264 129.184 132.264C129.113 132.264 129.041 132.264 128.97 132.264C128.898 132.264 128.825 132.264 128.753 132.264C128.68 132.264 128.607 132.264 128.534 132.264C128.461 132.264 128.387 132.264 128.313 132.264C128.24 132.264 128.165 132.264 128.091 132.264C128.016 132.264 127.941 132.264 127.866 132.264C127.791 132.264 127.715 132.264 127.639 132.264C127.563 132.264 127.487 132.264 127.41 132.264C127.334 132.264 127.257 132.264 127.18 132.264C127.102 132.264 127.025 132.264 126.947 132.264C126.869 132.264 126.791 132.264 126.712 132.264C126.634 132.264 126.555 132.264 126.476 132.264C126.397 132.264 126.317 132.264 126.237 132.264C126.158 132.264 126.077 132.264 125.997 132.264C125.916 132.264 125.836 132.264 125.755 132.264C125.674 132.264 125.592 132.264 125.51 132.264C125.429 132.264 125.347 132.264 125.264 132.264C125.182 132.264 125.099 132.264 125.017 132.264C124.934 132.264 124.85 132.264 124.767 132.264C124.683 132.264 124.599 132.264 124.515 132.264C124.431 132.264 124.346 132.264 124.262 132.264C124.177 132.264 124.092 132.264 124.006 132.264C123.921 132.264 123.835 132.264 123.749 132.264C123.663 132.264 123.577 132.264 123.49 132.264C123.404 132.264 123.317 132.264 123.23 132.264C123.143 132.264 123.055 132.264 122.967 132.264C122.88 132.264 122.792 132.264 122.703 132.264C122.615 132.264 122.526 132.264 122.437 132.264C122.348 132.264 122.259 132.264 122.17 132.264C122.08 132.264 121.99 132.264 121.9 132.264C121.81 132.264 121.72 132.264 121.629 132.264C121.538 132.264 121.448 132.264 121.356 132.264C121.265 132.264 121.174 132.264 121.082 132.264C120.99 132.264 120.898 132.264 120.806 132.264C120.713 132.264 120.621 132.264 120.528 132.264C120.435 132.264 120.342 132.264 120.248 132.264C120.155 132.264 120.061 132.264 119.967 132.264C119.873 132.264 119.779 132.264 119.684 132.264C119.59 132.264 119.495 132.264 119.4 132.264C119.305 132.264 119.21 132.264 119.114 132.264C119.018 132.264 118.922 132.264 118.826 132.264C118.73 132.264 118.634 132.264 118.537 132.264C118.44 132.264 118.344 132.264 118.246 132.264C118.149 132.264 118.052 132.264 117.954 132.264C117.856 132.264 117.758 132.264 117.66 132.264C117.562 132.264 117.463 132.264 117.365 132.264C117.266 132.264 117.167 132.264 117.068 132.264C116.968 132.264 116.869 132.264 116.769 132.264C116.669 132.264 116.569 132.264 116.469 132.264C116.369 132.264 116.268 132.264 116.168 132.264C116.067 132.264 115.966 132.264 115.865 132.264C115.764 132.264 115.662 132.264 115.56 132.264C115.459 132.264 115.357 132.264 115.254 132.264C115.152 132.264 115.05 132.264 114.947 132.264C114.844 132.264 114.741 132.264 114.638 132.264C114.535 132.264 114.432 132.264 114.328 132.264C114.224 132.264 114.121 132.264 114.017 132.264C113.912 132.264 113.808 132.264 113.703 132.264C113.599 132.264 113.494 132.264 113.389 132.264C113.284 132.264 113.179 132.264 113.073 132.264C112.968 132.264 112.862 132.264 112.756 132.264C112.65 132.264 112.544 132.264 112.438 132.264C112.331 132.264 112.225 132.264 112.118 132.264C112.011 132.264 111.904 132.264 111.797 132.264C111.689 132.264 111.582 132.264 111.474 132.264C111.366 132.264 111.258 132.264 111.15 132.264C111.042 132.264 110.934 132.264 110.825 132.264C110.717 132.264 110.608 132.264 110.499 132.264C110.39 132.264 110.281 132.264 110.171 132.264C110.062 132.264 109.952 132.264 109.842 132.264C109.732 132.264 109.622 132.264 109.512 132.264C109.402 132.264 109.291 132.264 109.181 132.264C109.07 132.264 108.959 132.264 108.848 132.264C108.737 132.264 108.625 132.264 108.514 132.264C108.402 132.264 108.291 132.264 108.179 132.264C108.067 132.264 107.955 132.264 107.843 132.264C107.73 132.264 107.618 132.264 107.505 132.264C107.392 132.264 107.28 132.264 107.167 132.264C107.053 132.264 106.94 132.264 106.827 132.264C106.713 132.264 106.6 132.264 106.486 132.264C106.372 132.264 106.258 132.264 106.144 132.264C106.03 132.264 105.915 132.264 105.801 132.264C105.686 132.264 105.571 132.264 105.456 132.264C105.341 132.264 105.226 132.264 105.111 132.264C104.996 132.264 104.88 132.264 104.764 132.264C104.649 132.264 104.533 132.264 104.417 132.264C104.301 132.264 104.185 132.264 104.068 132.264C103.952 132.264 103.835 132.264 103.719 132.264C103.602 132.264 103.485 132.264 103.368 132.264C103.251 132.264 103.133 132.264 103.016 132.264C102.899 132.264 102.781 132.264 102.663 132.264C102.545 132.264 102.428 132.264 102.309 132.264C102.191 132.264 102.073 132.264 101.955 132.264C101.836 132.264 101.718 132.264 101.599 132.264C101.48 132.264 101.361 132.264 101.242 132.264C101.123 132.264 101.004 132.264 100.884 132.264C100.765 132.264 100.645 132.264 100.526 132.264C100.406 132.264 100.286 132.264 100.166 132.264C100.046 132.264 99.926 132.264 99.8056 132.264C99.6853 132.264 99.5648 132.264 99.4442 132.264C99.3236 132.264 99.2028 132.264 99.0819 132.264C98.9609 132.264 98.8399 132.264 98.7186 132.264C98.5974 132.264 98.476 132.264 98.3545 132.264C98.233 132.264 98.1113 132.264 97.9895 132.264C97.8677 132.264 97.7458 132.264 97.6237 132.264C97.5016 132.264 97.3794 132.264 97.257 132.264C97.1346 132.264 97.0121 132.264 96.8895 132.264C96.7668 132.264 96.6441 132.264 96.5211 132.264C96.3982 132.264 96.2752 132.264 96.152 132.264C96.0288 132.264 95.9055 132.264 95.782 132.264C95.6586 132.264 95.535 132.264 95.4113 132.264C95.2876 132.264 95.1637 132.264 95.0398 132.264C94.9158 132.264 94.7917 132.264 94.6675 132.264C94.5432 132.264 94.4189 132.264 94.2944 132.264C94.17 132.264 94.0454 132.264 93.9206 132.264C93.7959 132.264 93.6711 132.264 93.5461 132.264C93.4212 132.264 93.2961 132.264 93.1709 132.264C93.0457 132.264 92.9204 132.264 92.795 132.264C92.6695 132.264 92.544 132.264 92.4183 132.264C92.2927 132.264 92.1669 132.264 92.041 132.264C91.9151 132.264 91.7891 132.264 91.663 132.264C91.5369 132.264 91.4107 132.264 91.2844 132.264C91.1581 132.264 91.0316 132.264 90.9051 132.264C90.7785 132.264 90.6519 132.264 90.5251 132.264C90.3984 132.264 90.2715 132.264 90.1446 132.264C90.0176 132.264 89.8906 132.264 89.7634 132.264C89.6362 132.264 89.509 132.264 89.3816 132.264C89.2543 132.264 89.1268 132.264 88.9992 132.264C88.8717 132.264 88.744 132.264 88.6163 132.264C88.4886 132.264 88.3607 132.264 88.2328 132.264C88.1048 132.264 87.9768 132.264 87.8487 132.264C87.7206 132.264 87.5924 132.264 87.4641 132.264C87.3358 132.264 87.2074 132.264 87.0789 132.264C86.9505 132.264 86.8219 132.264 86.6933 132.264C86.5646 132.264 86.4359 132.264 86.3071 132.264C86.1783 132.264 86.0494 132.264 85.9204 132.264C85.7914 132.264 85.6623 132.264 85.5332 132.264C85.4041 132.264 85.2749 132.264 85.1456 132.264C85.0163 132.264 84.8869 132.264 84.7574 132.264C84.628 132.264 84.4985 132.264 84.3689 132.264C84.2393 132.264 84.1096 132.264 83.9799 132.264C83.8501 132.264 83.7203 132.264 83.5904 132.264C83.4606 132.264 83.3306 132.264 83.2006 132.264C83.0706 132.264 82.9405 132.264 82.8103 132.264C82.6802 132.264 82.55 132.264 82.4197 132.264C82.2894 132.264 82.1591 132.264 82.0287 132.264C81.8982 132.264 81.7678 132.264 81.6372 132.264C81.5067 132.264 81.3761 132.264 81.2455 132.264C81.1148 132.264 80.9841 132.264 80.8534 132.264C80.7226 132.264 80.5918 132.264 80.4609 132.264C80.33 132.264 80.1991 132.264 80.0681 132.264C79.9372 132.264 79.8061 132.264 79.675 132.264C79.544 132.264 79.4128 132.264 79.2817 132.264C79.1505 132.264 79.0193 132.264 78.888 132.264C78.7567 132.264 78.6254 132.264 78.494 132.264C78.3627 132.264 78.2312 132.264 78.0998 132.264C77.9683 132.264 77.8368 132.264 77.7053 132.264C77.5738 132.264 77.4422 132.264 77.3106 132.264C77.179 132.264 77.0473 132.264 76.9156 132.264C76.7839 132.264 76.6522 132.264 76.5204 132.264C76.3887 132.264 76.2569 132.264 76.1251 132.264C75.9932 132.264 75.8614 132.264 75.7295 132.264C75.5976 132.264 75.4656 132.264 75.3337 132.264C75.2017 132.264 75.0698 132.264 74.9377 132.264C74.8057 132.264 74.6737 132.264 74.5416 132.264C74.4096 132.264 74.2775 132.264 74.1454 132.264C74.0133 132.264 73.8811 132.264 73.749 132.264C73.6168 132.264 73.4846 132.264 73.3524 132.264C73.2203 132.264 73.088 132.264 72.9558 132.264C72.8236 132.264 72.6913 132.264 72.5591 132.264C72.4268 132.264 72.2945 132.264 72.1622 132.264C72.0299 132.264 71.8976 132.264 71.7653 132.264C71.633 132.264 71.5006 132.264 71.3683 132.264C71.2359 132.264 71.1036 132.264 70.9712 132.264C70.8389 132.264 70.7065 132.264 70.5741 132.264C70.4418 132.264 70.3094 132.264 70.177 132.264C70.0446 132.264 69.9122 132.264 69.7798 132.264C69.6474 132.264 69.515 132.264 69.3827 132.264C69.2503 132.264 69.1179 132.264 68.9855 132.264C68.8531 132.264 68.7207 132.264 68.5883 132.264C68.4559 132.264 68.3236 132.264 68.1912 132.264C68.0588 132.264 67.9264 132.264 67.7941 132.264C67.6617 132.264 67.5294 132.264 67.397 132.264C67.2647 132.264 67.1323 132.264 67 132.264C66.8677 132.264 66.7354 132.264 66.6031 132.264C66.4708 132.264 66.3385 132.264 66.2062 132.264C66.0739 132.264 65.9417 132.264 65.8094 132.264C65.6772 132.264 65.545 132.264 65.4128 132.264C65.2806 132.264 65.1484 132.264 65.0162 132.264C64.8841 132.264 64.7519 132.264 64.6198 132.264C64.4877 132.264 64.3556 132.264 64.2235 132.264C64.0915 132.264 63.9594 132.264 63.8274 132.264C63.6954 132.264 63.5634 132.264 63.4314 132.264C63.2995 132.264 63.1675 132.264 63.0356 132.264C62.9037 132.264 62.7719 132.264 62.64 132.264C62.5082 132.264 62.3764 132.264 62.2446 132.264C62.1128 132.264 61.9811 132.264 61.8494 132.264C61.7177 132.264 61.586 132.264 61.4544 132.264C61.3228 132.264 61.1912 132.264 61.0596 132.264C60.9281 132.264 60.7966 132.264 60.6651 132.264C60.5337 132.264 60.4022 132.264 60.2709 132.264C60.1395 132.264 60.0082 132.264 59.8769 132.264C59.7456 132.264 59.6143 132.264 59.4831 132.264C59.352 132.264 59.2208 132.264 59.0897 132.264C58.9586 132.264 58.8276 132.264 58.6966 132.264C58.5656 132.264 58.4347 132.264 58.3038 132.264C58.1729 132.264 58.042 132.264 57.9113 132.264C57.7805 132.264 57.6498 132.264 57.5191 132.264C57.3884 132.264 57.2578 132.264 57.1273 132.264C56.9967 132.264 56.8663 132.264 56.7358 132.264C56.6054 132.264 56.475 132.264 56.3447 132.264C56.2144 132.264 56.0842 132.264 55.954 132.264C55.8239 132.264 55.6938 132.264 55.5637 132.264C55.4337 132.264 55.3037 132.264 55.1738 132.264C55.0439 132.264 54.9141 132.264 54.7843 132.264C54.6546 132.264 54.5249 132.264 54.3953 132.264C54.2656 132.264 54.1361 132.264 54.0066 132.264C53.8772 132.264 53.7478 132.264 53.6185 132.264C53.4891 132.264 53.3599 132.264 53.2307 132.264C53.1016 132.264 52.9725 132.264 52.8435 132.264C52.7145 132.264 52.5856 132.264 52.4568 132.264C52.3279 132.264 52.1992 132.264 52.0705 132.264C51.9418 132.264 51.8133 132.264 51.6848 132.264C51.5563 132.264 51.4278 132.264 51.2995 132.264C51.1712 132.264 51.043 132.264 50.9148 132.264C50.7867 132.264 50.6586 132.264 50.5307 132.264C50.4027 132.264 50.2749 132.264 50.1471 132.264C50.0193 132.264 49.8916 132.264 49.7641 132.264C49.6365 132.264 49.509 132.264 49.3816 132.264C49.2542 132.264 49.1269 132.264 48.9997 132.264C48.8725 132.264 48.7455 132.264 48.6185 132.264C48.4915 132.264 48.3646 132.264 48.2378 132.264C48.111 132.264 47.9844 132.264 47.8578 132.264C47.7312 132.264 47.6048 132.264 47.4784 132.264C47.3521 132.264 47.2258 132.264 47.0997 132.264C46.9735 132.264 46.8475 132.264 46.7216 132.264C46.5957 132.264 46.4699 132.264 46.3442 132.264C46.2185 132.264 46.0929 132.264 45.9674 132.264C45.842 132.264 45.7166 132.264 45.5914 132.264C45.4662 132.264 45.3411 132.264 45.2161 132.264C45.0911 132.264 44.9662 132.264 44.8415 132.264C44.7167 132.264 44.5921 132.264 44.4676 132.264C44.3431 132.264 44.2187 132.264 44.0944 132.264C43.9702 132.264 43.8461 132.264 43.7221 132.264C43.598 132.264 43.4742 132.264 43.3504 132.264C43.2267 132.264 43.1031 132.264 42.9796 132.264C42.8561 132.264 42.7327 132.264 42.6095 132.264C42.4863 132.264 42.3632 132.264 42.2402 132.264C42.1173 132.264 41.9945 132.264 41.8718 132.264C41.7491 132.264 41.6265 132.264 41.5041 132.264C41.3817 132.264 41.2595 132.264 41.1373 132.264C41.0152 132.264 40.8932 132.264 40.7714 132.264C40.6495 132.264 40.5278 132.264 40.4063 132.264C40.2847 132.264 40.1633 132.264 40.042 132.264C39.9208 132.264 39.7996 132.264 39.6787 132.264C39.5577 132.264 39.4369 132.264 39.3162 132.264C39.1955 132.264 39.075 132.264 38.9546 132.264C38.8343 132.264 38.7141 132.264 38.594 132.264C38.4739 132.264 38.354 132.264 38.2343 132.264C38.1145 132.264 37.9949 132.264 37.8755 132.264C37.756 132.264 37.6368 132.264 37.5176 132.264C37.3985 132.264 37.2796 132.264 37.1608 132.264C37.042 132.264 36.9233 132.264 36.8048 132.264C36.6864 132.264 36.5681 132.264 36.4499 132.264C36.3318 132.264 36.2138 132.264 36.096 132.264C35.9782 132.264 35.8605 132.264 35.7431 132.264C35.6256 132.264 35.5083 132.264 35.3912 132.264C35.274 132.264 35.1571 132.264 35.0403 132.264C34.9235 132.264 34.8069 132.264 34.6905 132.264C34.574 132.264 34.4578 132.264 34.3417 132.264C34.2256 132.264 34.1097 132.264 33.994 132.264C33.8782 132.264 33.7627 132.264 33.6473 132.264C33.5319 132.264 33.4168 132.264 33.3018 132.264C33.1868 132.264 33.0719 132.264 32.9573 132.264C32.8427 132.264 32.7282 132.264 32.614 132.264C32.4997 132.264 32.3856 132.264 32.2717 132.264C32.1579 132.264 32.0442 132.264 31.9307 132.264C31.8171 132.264 31.7038 132.264 31.5907 132.264C31.4776 132.264 31.3647 132.264 31.2519 132.264C31.1392 132.264 31.0266 132.264 30.9143 132.264C30.802 132.264 30.6898 132.264 30.5779 132.264C30.4659 132.264 30.3542 132.264 30.2426 132.264C30.1311 132.264 30.0197 132.264 29.9086 132.264C29.7974 132.264 29.6865 132.264 29.5758 132.264C29.465 132.264 29.3545 132.264 29.2442 132.264C29.1338 132.264 29.0237 132.264 28.9138 132.264C28.8039 132.264 28.6942 132.264 28.5847 132.264C28.4752 132.264 28.3659 132.264 28.2568 132.264C28.1478 132.264 28.0389 132.264 27.9303 132.264C27.8216 132.264 27.7132 132.264 27.605 132.264C27.4967 132.264 27.3887 132.264 27.281 132.264C27.1732 132.264 27.0656 132.264 26.9583 132.264C26.8509 132.264 26.7438 132.264 26.6369 132.264C26.53 132.264 26.4233 132.264 26.3169 132.264C26.2104 132.264 26.1042 132.264 25.9982 132.264C25.8922 132.264 25.7864 132.264 25.6808 132.264C25.5753 132.264 25.4699 132.264 25.3648 132.264C25.2597 132.264 25.1549 132.264 25.0502 132.264C24.9456 132.264 24.8412 132.264 24.737 132.264C24.6329 132.264 24.5289 132.264 24.4252 132.264C24.3215 132.264 24.218 132.264 24.1148 132.264C24.0116 132.264 23.9086 132.264 23.8058 132.264C23.7031 132.264 23.6006 132.264 23.4983 132.264C23.396 132.264 23.294 132.264 23.1922 132.264C23.0904 132.264 22.9889 132.264 22.8875 132.264C22.7862 132.264 22.6852 132.264 22.5844 132.264C22.4836 132.264 22.383 132.264 22.2827 132.264C22.1824 132.264 22.0823 132.264 21.9825 132.264C21.8827 132.264 21.7831 132.264 21.6838 132.264C21.5845 132.264 21.4854 132.264 21.3866 132.264C21.2878 132.264 21.1893 132.264 21.091 132.264C20.9927 132.264 20.8947 132.264 20.7969 132.264C20.6991 132.264 20.6016 132.264 20.5043 132.264C20.4071 132.264 20.3101 132.264 20.2133 132.264C20.1166 132.264 20.0201 132.264 19.9239 132.264C19.8277 132.264 19.7317 132.264 19.6361 132.264C19.5404 132.264 19.445 132.264 19.3498 132.264C19.2547 132.264 19.1598 132.264 19.0652 132.264C18.9706 132.264 18.8762 132.264 18.7822 132.264C18.6881 132.264 18.5943 132.264 18.5008 132.264C18.4073 132.264 18.314 132.264 18.2211 132.264C18.1281 132.264 18.0354 132.264 17.943 132.264C17.8506 132.264 17.7584 132.264 17.6666 132.264C17.5747 132.264 17.4831 132.264 17.3918 132.264C17.3005 132.264 17.2095 132.264 17.1188 132.264C17.0281 132.264 16.9376 132.264 16.8474 132.264C16.7573 132.264 16.6674 132.264 16.5778 132.264C16.4882 132.264 16.3989 132.264 16.3099 132.264C16.2209 132.264 16.1322 132.264 16.0437 132.264C15.9553 132.264 15.8672 132.264 15.7793 132.264C15.6915 132.264 15.6039 132.264 15.5166 132.264C15.4294 132.264 15.3424 132.264 15.2557 132.264C15.1691 132.264 15.0827 132.264 14.9966 132.264C14.9106 132.264 14.8248 132.264 14.7393 132.264C14.6538 132.264 14.5687 132.264 14.4838 132.264C14.3989 132.264 14.3144 132.264 14.2301 132.264C14.1458 132.264 14.0619 132.264 13.9782 132.264C13.8946 132.264 13.8112 132.264 13.7282 132.264C13.6452 132.264 13.5624 132.264 13.48 132.264C13.3976 132.264 13.3155 132.264 13.2337 132.264C13.1519 132.264 13.0704 132.264 12.9893 132.264C12.9081 132.264 12.8273 132.264 12.7467 132.264C12.6662 132.264 12.586 132.264 12.5061 132.264C12.4262 132.264 12.3466 132.264 12.2673 132.264C12.1881 132.264 12.1091 132.264 12.0305 132.264C11.9519 132.264 11.8736 132.264 11.7956 132.264C11.7176 132.264 11.64 132.264 11.5627 132.264C11.4854 132.264 11.4084 132.264 11.3317 132.264C11.255 132.264 11.1787 132.264 11.1027 132.264C11.0267 132.264 10.951 132.264 10.8756 132.264C10.8003 132.264 10.7253 132.264 10.6506 132.264C10.5759 132.264 10.5015 132.264 10.4275 132.264C10.3535 132.264 10.2798 132.264 10.2065 132.264C10.1331 132.264 10.0601 132.264 9.98747 132.264C9.9148 132.264 9.84248 132.264 9.77049 132.264C9.69851 132.264 9.62687 132.264 9.55557 132.264C9.48427 132.264 9.41331 132.264 9.3427 132.264C9.27209 132.264 9.20183 132.264 9.13191 132.264C9.06199 132.264 8.99242 132.264 8.9232 132.264C8.85398 132.264 8.7851 132.264 8.71658 132.264C8.64806 132.264 8.57989 132.264 8.51207 132.264C8.44426 132.264 8.37679 132.264 8.30968 132.264C8.24257 132.264 8.17582 132.264 8.10942 132.264C8.04302 132.264 7.97698 132.264 7.9113 132.264C7.84562 132.264 7.78029 132.264 7.71533 132.264C7.65037 132.264 7.58577 132.264 7.52153 132.264C7.45729 132.264 7.39341 132.264 7.3299 132.264C7.26639 132.264 7.20324 132.264 7.14046 132.264C7.07768 132.264 7.01527 132.264 6.95322 132.264C6.89117 132.264 6.8295 132.264 6.76819 132.264C6.70688 132.264 6.64595 132.264 6.58538 132.264C6.52482 132.264 6.46462 132.264 6.40481 132.264C6.34499 132.264 6.28555 132.264 6.22648 132.264C6.16741 132.264 6.10872 132.264 6.05041 132.264C5.99209 132.264 5.93416 132.264 5.8766 132.264C5.81905 132.264 5.76187 132.264 5.70508 132.264C5.64828 132.264 5.59187 132.264 5.53585 132.264C5.47982 132.264 5.42418 132.264 5.36892 132.264C5.31366 132.264 5.25879 132.264 5.2043 132.264C5.14982 132.264 5.09572 132.264 5.04202 132.264C4.98831 132.264 4.93499 132.264 4.88207 132.264C4.82914 132.264 4.77661 132.264 4.72447 132.264C4.67233 132.264 4.62058 132.264 4.56923 132.264C4.51788 132.264 4.46692 132.264 4.41636 132.264C4.3658 132.264 4.31564 132.264 4.26588 132.264C4.21612 132.264 4.16676 132.264 4.1178 132.264C4.06883 132.264 4.02027 132.264 3.97212 132.264C3.92396 132.264 3.87621 132.264 3.82886 132.264C3.78151 132.264 3.73457 132.264 3.68803 132.264C3.64149 132.264 3.59536 132.264 3.54964 132.264C3.50392 132.264 3.45861 132.264 3.41371 132.264C3.36881 132.264 3.32432 132.264 3.28024 132.264C3.23617 132.264 3.1925 132.264 3.14925 132.264C3.106 132.264 3.06317 132.264 3.02075 132.264C2.97833 132.264 2.93633 132.264 2.89475 132.264C2.85317 132.264 2.812 132.264 2.77126 132.264C2.73052 132.264 2.69019 132.264 2.65029 132.264C2.61039 132.264 2.57091 132.264 2.53186 132.264C2.49281 132.264 2.45418 132.264 2.41597 132.264C2.37777 132.264 2.33999 132.264 2.30265 132.264C2.2653 132.264 2.22838 132.264 2.19189 132.264C2.1554 132.264 2.11934 132.264 2.08371 132.264C2.04808 132.264 2.01289 132.264 1.97813 132.264C1.94337 132.264 1.90904 132.264 1.87515 132.264C1.84126 132.264 1.8078 132.264 1.77478 132.264C1.74177 132.264 1.70919 132.264 1.67705 132.264C1.64491 132.264 1.61321 132.264 1.58195 132.264C1.55069 132.264 1.51987 132.264 1.4895 132.264C1.45913 132.264 1.4292 132.264 1.39972 132.264C1.37023 132.264 1.3412 132.264 1.31261 132.264C1.28402 132.264 1.25587 132.264 1.22818 132.264C1.20049 132.264 1.17324 132.264 1.14645 132.264C1.11966 132.264 1.09332 132.264 1.06743 132.264C1.04154 132.264 1.01611 132.264 0.991131 132.264C0.966152 132.264 0.941629 132.264 0.917562 132.264C0.893496 132.264 0.869887 132.264 0.846737 132.264C0.823587 132.264 0.800896 132.264 0.778666 132.264C0.756437 132.264 0.734668 132.264 0.713362 132.264C0.692056 132.264 0.671214 132.264 0.650836 132.264C0.630458 132.264 0.610545 132.264 0.591099 132.264C0.571653 132.264 0.552674 132.264 0.534164 132.264C0.515653 132.264 0.497612 132.264 0.480041 132.264C0.46247 132.264 0.44537 132.264 0.428742 132.264C0.412115 132.264 0.39596 132.264 0.38028 132.264C0.364599 132.264 0.349393 132.264 0.334664 132.264C0.319935 132.264 0.305682 132.264 0.291908 132.264C0.278134 132.264 0.264838 132.264 0.252022 132.264C0.239207 132.264 0.226872 132.264 0.215019 132.264C0.203166 132.264 0.191795 132.264 0.180909 132.264C0.170023 132.264 0.15962 132.264 0.149705 132.264C0.139789 132.264 0.130359 132.264 0.121417 132.264C0.112475 132.264 0.104022 132.264 0.0960579 132.264C0.0880942 132.264 0.0806206 132.264 0.0736389 132.264C0.0666572 132.264 0.0601674 132.264 0.0541715 132.264C0.0481756 132.264 0.0426736 132.264 0.0376673 132.264C0.0326611 132.264 0.0281507 132.264 0.024138 132.264C0.0201253 132.264 0.0166103 132.264 0.013595 132.264C0.0105797 132.264 0.008064 132.264 0.00604993 132.264C0.00403586 132.264 0.00252338 132.264 0.00151441 132.264C0.000505447 132.264 0 132.264 0 132.764ZM138.5 133.264C147.571 133.264 160.19 130.66 174.78 126.927C189.372 123.194 206.026 118.306 223.129 113.725C240.249 109.139 257.854 104.851 274.42 102.296C290.992 99.7393 306.491 98.9221 319.411 101.256L319.589 100.271C306.509 97.9092 290.883 98.7442 274.268 101.307C257.646 103.871 240.001 108.171 222.871 112.759C205.724 117.352 189.128 122.224 174.532 125.959C159.935 129.693 147.429 132.264 138.5 132.264V133.264ZM426.5 133.264C453.126 133.264 475.887 122.586 496.141 113.28C506.283 108.62 515.782 104.31 524.854 101.815C533.917 99.3223 542.513 98.6537 550.852 101.241L551.148 100.286C542.564 97.6224 533.76 98.3284 524.588 100.851C515.424 103.371 505.851 107.718 495.724 112.371C475.439 121.691 452.874 132.264 426.5 132.264L426.5 133.264ZM550.852 101.241C555.791 102.773 560.029 105.131 564.442 107.829C568.846 110.522 573.438 113.564 579.023 116.405C590.225 122.102 605.428 127.001 631.5 127.001V126.001C605.572 126.001 590.525 121.134 579.477 115.514C573.937 112.696 569.404 109.691 564.964 106.976C560.534 104.267 556.209 101.856 551.148 100.286L550.852 101.241ZM631.5 127.001C643.354 127.001 655.243 123.218 667.313 117.579C679.38 111.941 691.672 104.424 704.317 96.9311C729.644 81.923 756.406 67.0009 786 67.0009V66.0009C756.094 66.0009 729.106 81.0789 703.808 96.0708C691.14 103.578 678.901 111.061 666.89 116.673C654.882 122.284 643.146 126.001 631.5 126.001V127.001ZM786 67.0009C793.897 67.0009 799.359 69.1106 803.845 72.2635C808.361 75.4374 811.889 79.6617 815.948 83.9749C819.993 88.2715 824.525 92.605 830.986 95.8566C837.45 99.1096 845.811 101.263 857.5 101.263V100.263C845.939 100.263 837.737 98.1345 831.436 94.9633C825.131 91.7907 820.695 87.5586 816.677 83.2895C812.674 79.037 809.045 74.6957 804.42 71.4454C799.766 68.1741 794.103 66.0009 786 66.0009V67.0009ZM857.5 101.263C860.875 101.263 865.254 99.7345 870.413 97.1382C875.59 94.5335 881.619 90.8187 888.316 86.3732C901.688 77.4958 917.847 65.6171 935.219 53.7951C952.618 41.9542 971.297 30.1255 989.833 21.2578C1008.37 12.3874 1026.73 6.5 1043.5 6.5V5.5C1026.52 5.5 1008 11.458 989.401 20.3558C970.797 29.2562 952.069 41.1184 934.656 52.9684C917.215 64.8373 901.155 76.6494 887.763 85.5401C881.076 89.9787 875.086 93.6673 869.964 96.245C864.824 98.8311 860.625 100.263 857.5 100.263V101.263ZM1043.5 6.5C1062.58 6.5 1076.47 15.0416 1088.49 25.0099C1094.52 30.01 1100.03 35.3182 1105.54 40.1267C1111.02 44.9145 1116.47 49.1707 1122.28 51.9513L1122.72 51.0492C1117.03 48.3296 1111.67 44.1481 1106.2 39.3734C1100.75 34.6193 1095.16 29.24 1089.13 24.24C1077.03 14.2084 1062.92 5.5 1043.5 5.5V6.5ZM1185 28.7635C1185 19.0193 1181.71 11.8491 1176.72 7.1638C1171.73 2.48448 1165.1 0.321734 1158.49 0.512577C1145.25 0.894404 1132 10.7097 1132 28.7635H1133C1133 11.3158 1145.75 1.88033 1158.51 1.51216C1164.9 1.328 1171.27 3.41544 1176.03 7.89274C1180.79 12.3641 1184 19.2569 1184 28.7635H1185ZM1132 28.7635C1132 34.4746 1133.48 39.0756 1136.4 42.8582C1139.32 46.6315 1143.66 49.5498 1149.3 51.9601L1149.7 51.0404C1144.14 48.6682 1139.97 45.8365 1137.19 42.2462C1134.42 38.6653 1133 34.2891 1133 28.7635H1132ZM1153.61 56.031C1160.09 54.6223 1167.96 53.593 1174.16 50.046C1177.28 48.261 1180 45.8308 1181.93 42.3843C1183.87 38.9401 1185 34.5137 1185 28.7635H1184C1184 34.3816 1182.89 38.631 1181.06 41.8947C1179.23 45.1562 1176.65 47.466 1173.66 49.178C1167.64 52.6247 1160.01 53.6165 1153.39 55.0538L1153.61 56.031ZM1149.3 51.9601C1154.99 54.3858 1162.56 55.4001 1168.67 55.8136C1171.73 56.0209 1174.44 56.078 1176.39 56.0834C1177.36 56.086 1178.14 56.0758 1178.68 56.0648C1178.95 56.0593 1179.16 56.0536 1179.3 56.0493C1179.37 56.0472 1179.43 56.0454 1179.46 56.0441C1179.48 56.0435 1179.5 56.0429 1179.5 56.0426C1179.51 56.0424 1179.51 56.0423 1179.52 56.0422C1179.52 56.0421 1179.52 56.0421 1179.52 56.0421C1179.52 56.0421 1179.52 56.0421 1179.52 56.042C1179.52 56.042 1179.52 56.042 1179.5 55.5424C1179.48 55.0428 1179.48 55.0428 1179.48 55.0428C1179.48 55.0428 1179.48 55.0428 1179.48 55.0428C1179.48 55.0428 1179.48 55.0429 1179.48 55.0429C1179.48 55.043 1179.47 55.0431 1179.47 55.0433C1179.46 55.0436 1179.45 55.0441 1179.43 55.0447C1179.39 55.0459 1179.34 55.0477 1179.27 55.0498C1179.13 55.054 1178.93 55.0596 1178.66 55.065C1178.13 55.0758 1177.35 55.086 1176.39 55.0834C1174.46 55.078 1171.77 55.0214 1168.74 54.8159C1162.65 54.4039 1155.22 53.397 1149.7 51.0404L1149.3 51.9601ZM1179.51 56.0424L1262.51 55.001L1262.49 54.0011L1179.49 55.0425L1179.51 56.0424ZM1122.28 51.9513C1130.72 55.9857 1140.37 58.9079 1153.61 56.031L1153.39 55.0538C1140.44 57.8689 1131.02 55.0226 1122.72 51.0492L1122.28 51.9513ZM380.364 126.982C388.68 129.328 397.988 130.461 406.485 129.873C414.971 129.286 422.716 126.978 427.834 122.372L427.166 121.628C422.284 126.022 414.797 128.296 406.416 128.876C398.047 129.454 388.855 128.338 380.636 126.02L380.364 126.982ZM427.834 122.372C433.997 116.826 435.5 108.541 435.5 100.763H434.5C434.5 108.459 433.003 116.374 427.166 121.628L427.834 122.372ZM383 100.763C383 109.535 383.997 117.76 392.712 123.908L393.288 123.091C384.995 117.24 384 109.465 384 100.763H383ZM392.712 123.908C397.038 126.961 403.354 129.295 409.625 130.867C415.902 132.44 422.193 133.264 426.5 133.264L426.5 132.264C422.294 132.264 416.087 131.455 409.868 129.897C403.643 128.337 397.466 126.039 393.288 123.091L392.712 123.908Z" fill="#212121"/>
</svg>
