<svg width="48" height="48" viewBox="0 0 48 48" fill="none" xmlns="http://www.w3.org/2000/svg">
<g clip-path="url(#clip0_1904_1690)">
<path d="M5.29977 0.138812C3.9851 0.412751 2.86606 1.02325 1.91136 1.97812C0.941012 2.94865 0.338455 4.06006 0.0645654 5.42194C-0.0841175 6.14201 -0.0841175 6.6664 -0.0684667 24.2612L-0.0449904 42.3647L0.134994 42.983C0.815805 45.3937 2.6313 47.186 5.01023 47.8278L5.66756 48H42.2123L42.8696 47.8278C45.272 47.186 47.111 45.3467 47.7526 42.9439L47.9248 42.2864V5.73501L47.7526 5.07755C47.111 2.69819 45.3189 0.882362 42.9087 0.201427L42.2905 0.021409L24.1355 0.00575531C6.7866 -0.00989839 5.94928 -0.00207156 5.29977 0.138812ZM18.6186 11.9574C21.9836 12.3722 24.4486 14.2037 25.4111 17.0135C25.7319 17.9605 25.8415 18.7902 25.7945 20.0581C25.7319 21.6861 25.4659 22.6567 24.7146 23.9794C24.1981 24.8717 23.3374 25.9048 20.8097 28.6285L18.5247 31.094L22.4609 31.1331L26.4049 31.1723L26.4284 33.6534L26.444 36.1423H7.64739L8.30473 35.4222C9.14205 34.4987 17.2492 25.4274 18.1804 24.3707C19.7455 22.5784 20.3402 21.3965 20.3402 20.0503C20.3324 19.0798 20.0898 18.3989 19.5029 17.7492C18.3369 16.4578 15.9971 16.4343 14.792 17.7023C14.0564 18.4849 13.806 19.2363 13.8216 20.6217L13.8295 21.5844H11.3645C9.10292 21.5844 8.90728 21.5766 8.85251 21.4435C8.74295 21.1696 8.79773 18.8293 8.93076 18.2188C9.6194 15.1037 11.7714 12.9201 14.9016 12.1609C16.0284 11.8869 17.4135 11.8165 18.6186 11.9574ZM40.2168 24.2455V36.1423H34.6607V17.2796L31.7497 17.264L28.8308 17.2405L28.8073 14.7907L28.7917 12.3487H40.2168V24.2455Z" fill="black"/>
</g>
<defs>
<clipPath id="clip0_1904_1690">
<rect width="48" height="48" fill="white"/>
</clipPath>
</defs>
</svg>
