<svg width="48" height="48" viewBox="0 0 48 48" fill="none" xmlns="http://www.w3.org/2000/svg">
<rect width="48" height="48" fill="#1E1E1E"/>
<g clip-path="url(#clip0_1904_1748)">
<path d="M24 24.2666C24 22.9229 24.5338 21.6341 25.484 20.6839C26.4342 19.7338 27.7229 19.2 29.0667 19.2C30.4104 19.2 31.6992 19.7338 32.6493 20.6839C33.5995 21.6341 34.1333 22.9229 34.1333 24.2666C34.1333 25.6104 33.5995 26.8991 32.6493 27.8493C31.6992 28.7995 30.4104 29.3333 29.0667 29.3333C27.7229 29.3333 26.4342 28.7995 25.484 27.8493C24.5338 26.8991 24 25.6104 24 24.2666V24.2666Z" fill="#1ABCFE"/>
<path d="M13.8662 34.3999C13.8662 33.0562 14.4 31.7674 15.3502 30.8172C16.3004 29.8671 17.5891 29.3333 18.9329 29.3333H23.9995V34.3999C23.9995 35.7437 23.4657 37.0324 22.5156 37.9826C21.5654 38.9328 20.2766 39.4666 18.9329 39.4666C17.5891 39.4666 16.3004 38.9328 15.3502 37.9826C14.4 37.0324 13.8662 35.7437 13.8662 34.3999V34.3999Z" fill="#0ACF83"/>
<path d="M24 9.06665V19.2H29.0667C30.4104 19.2 31.6992 18.6662 32.6493 17.716C33.5995 16.7658 34.1333 15.4771 34.1333 14.1333C34.1333 12.7896 33.5995 11.5008 32.6493 10.5506C31.6992 9.60046 30.4104 9.06665 29.0667 9.06665H24Z" fill="#FF7262"/>
<path d="M13.8662 14.1333C13.8662 15.4771 14.4 16.7658 15.3502 17.716C16.3004 18.6662 17.5891 19.2 18.9329 19.2H23.9995V9.06665H18.9329C17.5891 9.06665 16.3004 9.60046 15.3502 10.5506C14.4 11.5008 13.8662 12.7896 13.8662 14.1333V14.1333Z" fill="#F24E1E"/>
<path d="M13.8662 24.2666C13.8662 25.6104 14.4 26.8991 15.3502 27.8493C16.3004 28.7995 17.5891 29.3333 18.9329 29.3333H23.9995V19.2H18.9329C17.5891 19.2 16.3004 19.7338 15.3502 20.6839C14.4 21.6341 13.8662 22.9229 13.8662 24.2666V24.2666Z" fill="#A259FF"/>
</g>
<defs>
<clipPath id="clip0_1904_1748">
<rect width="20.2667" height="30.4" fill="white" transform="translate(13.8662 9.06665)"/>
</clipPath>
</defs>
</svg>
