<?xml version="1.0" encoding="utf-8"?>
<!-- Generator: Adobe Illustrator 27.3.0, SVG Export Plug-In . SVG Version: 6.00 Build 0)  -->
<svg version="1.1" id="Ebene_1" xmlns="http://www.w3.org/2000/svg" xmlns:xlink="http://www.w3.org/1999/xlink" x="0px" y="0px"
	 viewBox="0 0 48 48" style="enable-background:new 0 0 48 48;" xml:space="preserve">
<style type="text/css">
	.st0{fill:#1E1E1E;}
	.st1{clip-path:url(#SVGID_00000017507508819000520240000003062974071273081498_);}
	.st2{fill:#1ABCFE;}
	.st3{fill:#0ACF83;}
	.st4{fill:#FF7262;}
	.st5{fill:#F24E1E;}
	.st6{fill:#A259FF;}
</style>
<path class="st0" d="M3.3,0h41.4C46.5,0,48,1.5,48,3.3v41.4c0,1.8-1.5,3.3-3.3,3.3H3.3C1.5,48,0,46.5,0,44.7V3.3C0,1.5,1.5,0,3.3,0z
	"/>
<path class="st0" d="M44.7,48H3.3C1.5,48,0,46.5,0,44.7V3.3C0,1.5,1.5,0,3.3,0h41.4C46.5,0,48,1.5,48,3.3v41.4
	C48,46.5,46.5,48,44.7,48z"/>
<g>
	<defs>
		<rect id="SVGID_1_" x="13.9" y="9.1" width="20.3" height="30.4"/>
	</defs>
	<clipPath id="SVGID_00000166658676916564546540000008357799382924430511_">
		<use xlink:href="#SVGID_1_"  style="overflow:visible;"/>
	</clipPath>
	<g style="clip-path:url(#SVGID_00000166658676916564546540000008357799382924430511_);">
		<path class="st2" d="M24,24.3c0-1.3,0.5-2.6,1.5-3.6c1-1,2.2-1.5,3.6-1.5c1.3,0,2.6,0.5,3.6,1.5c1,1,1.5,2.2,1.5,3.6
			c0,1.3-0.5,2.6-1.5,3.6c-1,1-2.2,1.5-3.6,1.5c-1.3,0-2.6-0.5-3.6-1.5C24.5,26.9,24,25.6,24,24.3L24,24.3z"/>
		<path class="st3" d="M13.9,34.4c0-1.3,0.5-2.6,1.5-3.6c1-1,2.2-1.5,3.6-1.5H24v5.1c0,1.3-0.5,2.6-1.5,3.6c-1,1-2.2,1.5-3.6,1.5
			c-1.3,0-2.6-0.5-3.6-1.5C14.4,37,13.9,35.7,13.9,34.4L13.9,34.4z"/>
		<path class="st4" d="M24,9.1v10.1h5.1c1.3,0,2.6-0.5,3.6-1.5c1-1,1.5-2.2,1.5-3.6c0-1.3-0.5-2.6-1.5-3.6c-1-1-2.2-1.5-3.6-1.5H24z
			"/>
		<path class="st5" d="M13.9,14.1c0,1.3,0.5,2.6,1.5,3.6c1,1,2.2,1.5,3.6,1.5H24V9.1h-5.1c-1.3,0-2.6,0.5-3.6,1.5
			C14.4,11.5,13.9,12.8,13.9,14.1L13.9,14.1z"/>
		<path class="st6" d="M13.9,24.3c0,1.3,0.5,2.6,1.5,3.6c1,1,2.2,1.5,3.6,1.5H24V19.2h-5.1c-1.3,0-2.6,0.5-3.6,1.5
			C14.4,21.6,13.9,22.9,13.9,24.3L13.9,24.3z"/>
	</g>
</g>
</svg>
