<?xml version="1.0" encoding="UTF-8"?>
<svg width="134px" height="135px" viewBox="0 0 134 135" version="1.1" xmlns="http://www.w3.org/2000/svg" xmlns:xlink="http://www.w3.org/1999/xlink">
    <!-- Generator: Sketch 52.6 (67491) - http://www.bohemiancoding.com/sketch -->
    <title>New Symbol</title>
    <desc>Created with Sketch.</desc>
    <defs>
        <path d="M3.811,0.126 C2.82,0.126 1.912,0.544 1.296,1.229 C0.741,1.809 0.396,2.598 0.371,3.456 L0.371,3.684 C0.382,4.091 0.462,4.473 0.605,4.824 C0.611,4.855 0.624,4.88 0.635,4.911 C0.747,5.176 0.888,5.422 1.067,5.651 C1.128,5.738 1.197,5.818 1.271,5.891 C1.283,5.91 1.301,5.928 1.32,5.947 L12.285,18.965 L16.244,23.664 L28.098,37.732 L32.057,42.424 L42.67,55.024 L46.622,59.716 L46.622,92.629 C46.839,92.629 47.049,92.623 47.258,92.605 C49.336,92.458 51.211,91.569 52.623,90.206 C52.63,90.206 52.63,90.206 52.63,90.199 L53.795,88.812 L82.262,55.024 L92.006,43.454 C92.055,43.405 92.098,43.349 92.142,43.294 C92.351,43.035 92.517,42.744 92.64,42.424 C92.795,42.042 92.875,41.623 92.875,41.178 L92.875,3.567 C92.875,2.66 92.523,1.827 91.944,1.223 C91.321,0.544 90.426,0.126 89.427,0.126 L3.811,0.126 Z" id="path-1"></path>
        <path d="M3.811,0.126 C2.82,0.126 1.912,0.544 1.296,1.229 C0.741,1.809 0.396,2.598 0.371,3.456 L0.371,3.684 C0.382,4.091 0.462,4.473 0.605,4.824 C0.611,4.855 0.624,4.88 0.635,4.911 C0.747,5.176 0.888,5.422 1.067,5.651 C1.128,5.738 1.197,5.818 1.271,5.891 C1.283,5.91 1.301,5.928 1.32,5.947 L12.285,18.965 L16.244,23.664 L28.098,37.732 L32.057,42.424 L42.67,55.024 L46.622,59.716 L46.622,92.629 C46.839,92.629 47.049,92.623 47.258,92.605 C49.336,92.458 51.211,91.569 52.623,90.206 C52.63,90.206 52.63,90.206 52.63,90.199 L53.795,88.812 L82.262,55.024 L92.006,43.454 C92.055,43.405 92.098,43.349 92.142,43.294 C92.351,43.035 92.517,42.744 92.64,42.424 C92.795,42.042 92.875,41.623 92.875,41.178 L92.875,3.567 C92.875,2.66 92.523,1.827 91.944,1.223 C91.321,0.544 90.426,0.126 89.427,0.126 L3.811,0.126 Z" id="path-3"></path>
        <linearGradient x1="89.8668949%" y1="-11.8387709%" x2="12.8617641%" y2="65.1671924%" id="linearGradient-5">
            <stop stop-color="#FF6660" offset="0%"></stop>
            <stop stop-color="#FB4444" offset="100%"></stop>
        </linearGradient>
        <polygon id="path-6" points="0 134 133.245 134 133.245 0.755 0 0.755"></polygon>
    </defs>
    <g id="New-Symbol" stroke="none" stroke-width="1" fill="none" fill-rule="evenodd">
        <g id="Symbol_Simple">
            <g id="Group-5" transform="translate(20.000000, 21.245000)">
                <mask id="mask-2" fill="white">
                    <use xlink:href="#path-1"></use>
                </mask>
                <g id="Clip-4"></g>
                <path d="M3.811,0.126 C2.82,0.126 1.912,0.544 1.296,1.229 C0.741,1.809 0.396,2.598 0.371,3.456 L0.371,3.684 C0.382,4.091 0.462,4.473 0.605,4.824 C0.611,4.855 0.624,4.88 0.635,4.911 C0.747,5.176 0.888,5.422 1.067,5.651 C1.128,5.738 1.197,5.818 1.271,5.891 C1.283,5.91 1.301,5.928 1.32,5.947 L12.285,18.965 L16.244,23.664 L28.098,37.732 L32.057,42.424 L42.67,55.024 L46.622,59.716 L46.622,92.629 C46.839,92.629 47.049,92.623 47.258,92.605 C49.336,92.458 51.211,91.569 52.623,90.206 C52.63,90.206 52.63,90.206 52.63,90.199 L53.795,88.812 L82.262,55.024 L92.006,43.454 C92.055,43.405 92.098,43.349 92.142,43.294 C92.351,43.035 92.517,42.744 92.64,42.424 C92.795,42.042 92.875,41.623 92.875,41.178 L92.875,3.567 C92.875,2.66 92.523,1.827 91.944,1.223 C91.321,0.544 90.426,0.126 89.427,0.126 L3.811,0.126 Z" id="Fill-3" mask="url(#mask-2)"></path>
            </g>
            <g id="Group-8" transform="translate(20.000000, 21.245000)">
                <mask id="mask-4" fill="white">
                    <use xlink:href="#path-3"></use>
                </mask>
                <g id="Clip-7"></g>
                <path d="M3.811,0.126 C2.82,0.126 1.912,0.544 1.296,1.229 C0.741,1.809 0.396,2.598 0.371,3.456 L0.371,3.684 C0.382,4.091 0.462,4.473 0.605,4.824 C0.611,4.855 0.624,4.88 0.635,4.911 C0.747,5.176 0.888,5.422 1.067,5.651 C1.128,5.738 1.197,5.818 1.271,5.891 C1.283,5.91 1.301,5.928 1.32,5.947 L12.285,18.965 L16.244,23.664 L28.098,37.732 L32.057,42.424 L42.67,55.024 L46.622,59.716 L46.622,92.629 C46.839,92.629 47.049,92.623 47.258,92.605 C49.336,92.458 51.211,91.569 52.623,90.206 C52.63,90.206 52.63,90.206 52.63,90.199 L53.795,88.812 L82.262,55.024 L92.006,43.454 C92.055,43.405 92.098,43.349 92.142,43.294 C92.351,43.035 92.517,42.744 92.64,42.424 C92.795,42.042 92.875,41.623 92.875,41.178 L92.875,3.567 C92.875,2.66 92.523,1.827 91.944,1.223 C91.321,0.544 90.426,0.126 89.427,0.126 L3.811,0.126 Z" id="Fill-6" fill="url(#linearGradient-5)" mask="url(#mask-4)"></path>
            </g>
            <g id="Group-15" transform="translate(0.000000, 0.245000)">
                <path d="M66.6229,99.557 L66.6229,113.629 C64.2919,113.629 62.1769,112.704 60.6219,111.205 C60.6159,111.205 60.6159,111.205 60.6159,111.2 L59.4509,109.812 L30.9839,76.024 L21.2959,64.522 C21.2709,64.51 21.2529,64.485 21.2399,64.46 L21.0859,64.282 C21.0739,64.269 21.0669,64.257 21.0559,64.244 C20.8699,63.992 20.7099,63.72 20.6049,63.424 C20.4629,63.073 20.3829,62.691 20.3709,62.296 L20.3709,62.062 C20.3709,61.988 20.3769,61.913 20.3899,61.839 C20.4569,61.063 20.7899,60.371 21.2959,59.829 C21.9189,59.157 22.8189,58.732 23.8109,58.732 L32.2179,58.732 L36.1709,63.424 L46.7839,76.024 L64.1859,96.677 L66.6169,99.563 L66.6229,99.557 Z" id="Fill-9" fill="#FCD1CA"></path>
                <path d="M66.6229,80.7191 L66.6229,99.5551 L66.6169,99.5611 L64.1889,96.6761 L46.7869,76.0251 L36.1719,63.4271 L32.2179,58.7321 L21.2319,45.7001 C21.1859,45.6491 21.1399,45.5911 21.0939,45.5321 C20.8919,45.2731 20.7239,44.9841 20.6019,44.6651 C20.4639,44.3131 20.3829,43.9311 20.3709,43.5271 L20.3709,43.2951 C20.3939,42.4341 20.7409,41.6591 21.2959,41.0701 C21.9149,40.3871 22.8159,39.9651 23.8109,39.9651 L32.2869,39.9651 L36.2469,44.6651 L48.0999,58.7321 L52.0539,63.4271 L62.6689,76.0251 L66.6229,80.7191 Z" id="Fill-11" fill="#FF9D8D"></path>
                <mask id="mask-7" fill="white">
                    <use xlink:href="#path-6"></use>
                </mask>
                <g id="Clip-14"></g>
                <polygon id="Stroke-13" mask="url(#mask-7)" points="0.5 133.5 132.745 133.5 132.745 1.255 0.5 1.255"></polygon>
            </g>
        </g>
    </g>
</svg>