<?xml version="1.0" encoding="utf-8"?>
<!-- Generator: Adobe Illustrator 27.3.0, SVG Export Plug-In . SVG Version: 6.00 Build 0)  -->
<svg version="1.1" id="Ebene_1" xmlns="http://www.w3.org/2000/svg" xmlns:xlink="http://www.w3.org/1999/xlink" x="0px" y="0px"
	 viewBox="0 0 134 135" style="enable-background:new 0 0 134 135;" xml:space="preserve">
<style type="text/css">
	.st0{filter:url(#Adobe_OpacityMaskFilter);}
	.st1{fill-rule:evenodd;clip-rule:evenodd;fill:#FFFFFF;}
	.st2{mask:url(#mask-2_00000133528551210738969040000000829274282274061229_);fill:none;}
	.st3{filter:url(#Adobe_OpacityMaskFilter_00000041262331070077734990000005755179855780840638_);}
	
		.st4{mask:url(#mask-4_00000153681094740534620350000013172389934165854377_);fill-rule:evenodd;clip-rule:evenodd;fill:url(#Fill-6_00000173865534639286181400000013589515191985679806_);}
	.st5{fill-rule:evenodd;clip-rule:evenodd;fill:#FCD1CA;}
	.st6{fill-rule:evenodd;clip-rule:evenodd;fill:#FF9D8D;}
	.st7{filter:url(#Adobe_OpacityMaskFilter_00000171720947034827540910000016794885404318135452_);}
	.st8{mask:url(#mask-7_00000164510293578447822270000009026749187341272451_);fill:none;}
</style>
<g id="New-Symbol">
	<g id="Symbol_Simple">
		<g id="Group-5" transform="translate(20.000000, 21.245000)">
			<g id="Clip-4">
			</g>
			<defs>
				<filter id="Adobe_OpacityMaskFilter" filterUnits="userSpaceOnUse" x="-18.2" y="-18.6" width="130.3" height="130.3">
					<feColorMatrix  type="matrix" values="1 0 0 0 0  0 1 0 0 0  0 0 1 0 0  0 0 0 1 0"/>
				</filter>
			</defs>
			
				<mask maskUnits="userSpaceOnUse" x="-18.2" y="-18.6" width="130.3" height="130.3" id="mask-2_00000133528551210738969040000000829274282274061229_">
				<g class="st0">
					<path id="path-1_00000132789287869043550600000018088425331167229841_" class="st1" d="M-13.3-18.6c-1.4,0-2.7,0.6-3.5,1.6
						c-0.8,0.8-1.3,1.9-1.3,3.1v0.3c0,0.6,0.1,1.1,0.3,1.6c0,0,0,0.1,0,0.1c0.2,0.4,0.4,0.7,0.6,1c0.1,0.1,0.2,0.2,0.3,0.3
						c0,0,0,0.1,0.1,0.1L-1.4,7.9l5.6,6.6l16.7,19.8l5.6,6.6l15,17.8l5.6,6.6v46.4c0.3,0,0.6,0,0.9,0c2.9-0.2,5.6-1.5,7.6-3.4
						c0,0,0,0,0,0l1.6-2l40.1-47.6l13.7-16.3c0.1-0.1,0.1-0.1,0.2-0.2c0.3-0.4,0.5-0.8,0.7-1.2c0.2-0.5,0.3-1.1,0.3-1.8v-53
						c0-1.3-0.5-2.5-1.3-3.3c-0.9-1-2.1-1.5-3.5-1.5H-13.3z"/>
				</g>
			</mask>
			<path id="Fill-3" class="st2" d="M-13.3-18.6c-1.4,0-2.7,0.6-3.5,1.6c-0.8,0.8-1.3,1.9-1.3,3.1v0.3c0,0.6,0.1,1.1,0.3,1.6
				c0,0,0,0.1,0,0.1c0.2,0.4,0.4,0.7,0.6,1c0.1,0.1,0.2,0.2,0.3,0.3c0,0,0,0.1,0.1,0.1L-1.4,7.9l5.6,6.6l16.7,19.8l5.6,6.6l15,17.8
				l5.6,6.6v46.4c0.3,0,0.6,0,0.9,0c2.9-0.2,5.6-1.5,7.6-3.4c0,0,0,0,0,0l1.6-2l40.1-47.6l13.7-16.3c0.1-0.1,0.1-0.1,0.2-0.2
				c0.3-0.4,0.5-0.8,0.7-1.2c0.2-0.5,0.3-1.1,0.3-1.8v-53c0-1.3-0.5-2.5-1.3-3.3c-0.9-1-2.1-1.5-3.5-1.5H-13.3z"/>
		</g>
		<g id="Group-8" transform="translate(20.000000, 21.245000)">
			<g id="Clip-7">
			</g>
			<defs>
				
					<filter id="Adobe_OpacityMaskFilter_00000159439522926073269130000000936721878327082629_" filterUnits="userSpaceOnUse" x="-18.2" y="-18.6" width="130.3" height="130.3">
					<feColorMatrix  type="matrix" values="1 0 0 0 0  0 1 0 0 0  0 0 1 0 0  0 0 0 1 0"/>
				</filter>
			</defs>
			
				<mask maskUnits="userSpaceOnUse" x="-18.2" y="-18.6" width="130.3" height="130.3" id="mask-4_00000153681094740534620350000013172389934165854377_">
				<g style="filter:url(#Adobe_OpacityMaskFilter_00000159439522926073269130000000936721878327082629_);">
					<path id="path-3_00000149346537261389555920000004727064440720227748_" class="st1" d="M-13.3-18.6c-1.4,0-2.7,0.6-3.5,1.6
						c-0.8,0.8-1.3,1.9-1.3,3.1v0.3c0,0.6,0.1,1.1,0.3,1.6c0,0,0,0.1,0,0.1c0.2,0.4,0.4,0.7,0.6,1c0.1,0.1,0.2,0.2,0.3,0.3
						c0,0,0,0.1,0.1,0.1L-1.4,7.9l5.6,6.6l16.7,19.8l5.6,6.6l15,17.8l5.6,6.6v46.4c0.3,0,0.6,0,0.9,0c2.9-0.2,5.6-1.5,7.6-3.4
						c0,0,0,0,0,0l1.6-2l40.1-47.6l13.7-16.3c0.1-0.1,0.1-0.1,0.2-0.2c0.3-0.4,0.5-0.8,0.7-1.2c0.2-0.5,0.3-1.1,0.3-1.8v-53
						c0-1.3-0.5-2.5-1.3-3.3c-0.9-1-2.1-1.5-3.5-1.5H-13.3z"/>
				</g>
			</mask>
			
				<linearGradient id="Fill-6_00000050621263929139706200000016203778419088690311_" gradientUnits="userSpaceOnUse" x1="-198.9671" y1="295.1567" x2="-200.052" y2="294.0718" gradientTransform="matrix(92.504 0 0 -92.503 18504.1777 27268.8535)">
				<stop  offset="0" style="stop-color:#FF6660"/>
				<stop  offset="1" style="stop-color:#FB4444"/>
			</linearGradient>
			
				<path id="Fill-6" style="mask:url(#mask-4_00000153681094740534620350000013172389934165854377_);fill-rule:evenodd;clip-rule:evenodd;fill:url(#Fill-6_00000050621263929139706200000016203778419088690311_);" d="
				M-13.3-18.6c-1.4,0-2.7,0.6-3.5,1.6c-0.8,0.8-1.3,1.9-1.3,3.1v0.3c0,0.6,0.1,1.1,0.3,1.6c0,0,0,0.1,0,0.1c0.2,0.4,0.4,0.7,0.6,1
				c0.1,0.1,0.2,0.2,0.3,0.3c0,0,0,0.1,0.1,0.1L-1.4,7.9l5.6,6.6l16.7,19.8l5.6,6.6l15,17.8l5.6,6.6v46.4c0.3,0,0.6,0,0.9,0
				c2.9-0.2,5.6-1.5,7.6-3.4c0,0,0,0,0,0l1.6-2l40.1-47.6l13.7-16.3c0.1-0.1,0.1-0.1,0.2-0.2c0.3-0.4,0.5-0.8,0.7-1.2
				c0.2-0.5,0.3-1.1,0.3-1.8v-53c0-1.3-0.5-2.5-1.3-3.3c-0.9-1-2.1-1.5-3.5-1.5H-13.3z"/>
		</g>
		<g id="Group-15" transform="translate(0.000000, 0.245000)">
			<path id="Fill-9" class="st5" d="M67,112.9v19.8c-3.3,0-6.3-1.3-8.5-3.4c0,0,0,0,0,0l-1.6-2L16.8,79.7L3.1,63.5
				c0,0-0.1-0.1-0.1-0.1l-0.2-0.3c0,0,0,0,0-0.1c-0.3-0.4-0.5-0.7-0.6-1.2c-0.2-0.5-0.3-1-0.3-1.6v-0.3c0-0.1,0-0.2,0-0.3
				c0.1-1.1,0.6-2.1,1.3-2.8C4,56,5.3,55.4,6.7,55.4h11.8l5.6,6.6l15,17.8l24.5,29.1L67,112.9L67,112.9z"/>
			<path id="Fill-11" class="st6" d="M67,86.4v26.5l0,0l-3.4-4.1L39,79.7L24.1,62l-5.6-6.6L3,37C3,37,2.9,36.9,2.8,36.8
				c-0.3-0.4-0.5-0.8-0.7-1.2c-0.2-0.5-0.3-1-0.3-1.6v-0.3c0-1.2,0.5-2.3,1.3-3.1c0.9-1,2.1-1.6,3.5-1.6h11.9l5.6,6.6l16.7,19.8
				l5.6,6.6l15,17.7L67,86.4z"/>
			<g id="Clip-14">
			</g>
			<defs>
				
					<filter id="Adobe_OpacityMaskFilter_00000183958798366170277660000003921831847500804792_" filterUnits="userSpaceOnUse" x="-26.2" y="-25.6" width="186.3" height="186.3">
					<feColorMatrix  type="matrix" values="1 0 0 0 0  0 1 0 0 0  0 0 1 0 0  0 0 0 1 0"/>
				</filter>
			</defs>
			
				<mask maskUnits="userSpaceOnUse" x="-26.2" y="-25.6" width="186.3" height="186.3" id="mask-7_00000164510293578447822270000009026749187341272451_">
				<g style="filter:url(#Adobe_OpacityMaskFilter_00000183958798366170277660000003921831847500804792_);">
					<polygon id="path-6_00000096751948553676382040000016807758150045343929_" class="st1" points="-26.9,161.4 160.8,161.4 
						160.8,-26.3 -26.9,-26.3 					"/>
				</g>
			</mask>
			<polygon id="Stroke-13" class="st8" points="-26.2,160.7 160.1,160.7 160.1,-25.6 -26.2,-25.6 			"/>
		</g>
	</g>
</g>
</svg>
