<?xml version="1.0" encoding="utf-8"?>
<!-- Generator: Adobe Illustrator 27.3.0, SVG Export Plug-In . SVG Version: 6.00 Build 0)  -->
<svg version="1.1" id="Ebene_1" xmlns="http://www.w3.org/2000/svg" xmlns:xlink="http://www.w3.org/1999/xlink" x="0px" y="0px"
	 viewBox="0 0 344.3 114" style="enable-background:new 0 0 344.3 114;" xml:space="preserve">
<style type="text/css">
	.st0{fill:#1D1E1B;}
	.st1{fill:#AF1280;}
	.st2{font-family:'ArialMT';}
	.st3{font-size:19.7345px;}
</style>
<polygon class="st0" points="0,24.2 19.4,24.2 19.4,29 5.6,29 5.6,40.3 18.6,40.3 18.6,45.1 5.6,45.1 5.6,61.1 0,61.1 "/>
<polygon class="st0" points="26.7,24.2 32.4,24.2 32.4,39.4 45.9,39.4 45.9,24.2 51.5,24.2 51.5,61.1 45.9,61.1 45.9,44 32.4,44 
	32.4,61.1 26.7,61.1 "/>
<polygon class="st1" points="69.5,24.2 69.5,41.4 69.5,71.8 69.5,88.9 74.8,88.9 74.8,71.8 74.8,41.4 74.8,24.2 "/>
<path class="st0" d="M156.3,24.2h-6.2L138,61.1h5.6l2.9-9.5H159l3,9.5h6.3L156.3,24.2z M147.9,47.3l4.5-13.8l0.5-3.3l0.5,3.3
	l4.4,13.8H147.9z"/>
<path class="st0" d="M120.8,23.5c-8,0-14.3,4-14.3,19.4c0,15.5,6,18.9,14.3,18.9c8.3,0,14.2-3.4,14.2-18.9
	C135,27.5,129.1,23.5,120.8,23.5z M120.8,57.1c-6.8,0-8.4-5.7-8.4-14.3c0-9.1,1.8-14.7,8.4-14.7c6.7,0,8.4,5.6,8.4,14.7
	C129.2,51.4,127.6,57.1,120.8,57.1z"/>
<polygon class="st0" points="173.1,24.2 180.8,24.2 193,49.7 194.4,54.9 194.1,49.6 194.1,24.2 199.7,24.2 199.7,61.1 192.4,61.1 
	180,35.4 178.3,30 178.6,35.4 178.6,61.1 173.1,61.1 "/>
<polygon class="st0" points="208.6,24.2 216.4,24.2 228.6,49.7 230,54.9 229.7,49.6 229.7,24.2 235.2,24.2 235.2,61.1 228,61.1 
	215.6,35.4 213.7,30 214.2,35.4 214.2,61.1 208.6,61.1 "/>
<polygon class="st0" points="244.2,24.2 264.5,24.2 264.5,29 249.8,29 249.8,39.6 263.2,39.6 263.2,44.3 249.8,44.3 249.8,56 
	265,56 265,61.1 244.2,61.1 "/>
<path class="st0" d="M271.8,47.6V24.2h5.7v23.3c0,7.4,1.2,9.2,6.1,9.2c1.7,0,3.5-0.5,4.6-0.9l4-1.5V24.2h5.6v31c0,1.9,0.4,6,0.4,6
	h-4c-0.5-0.6-0.9-1.5-1.3-2.4l-4.9,2.1c-1.5,0.6-3.8,1.2-5.7,1.2C274,61.8,271.8,57.8,271.8,47.6z"/>
<polygon class="st0" points="308.7,24.2 317,24.2 324.5,51.3 325.2,55.8 326,51.3 333.2,24.2 341.3,24.2 344.3,61.1 338.5,61.1 
	336.5,35.4 336.3,29.5 335.3,35.4 328,61.1 322,61.1 314.8,35.4 313.7,29.5 313.5,35.4 311.5,61.1 305.7,61.1 "/>
<path d="M92.8,24.2v29.3c0,5.7-2.9,7-6.2,8.5l1.7,4.3c4.9-1.6,10.2-3.5,10.2-12.1V24.2H92.8z"/>
<text transform="matrix(1 0 0 1 91.0659 88.9092)" class="st1 st2 st3">Design &amp; Kommunikation</text>
</svg>
