<?xml version="1.0" encoding="utf-8"?>
<!-- Generator: Adobe Illustrator 27.3.0, SVG Export Plug-In . SVG Version: 6.00 Build 0)  -->
<svg version="1.1" id="Ebene_1" xmlns="http://www.w3.org/2000/svg" xmlns:xlink="http://www.w3.org/1999/xlink" x="0px" y="0px"
	 viewBox="0 0 84.8 29" style="enable-background:new 0 0 84.8 29;" xml:space="preserve">
<path d="M17.4,22V10.1h-3.7V7h7.2v14.9L17.4,22L17.4,22z M28.2,22V10.1h-4.3V7h12.2v3.1h-4.3v11.8L28.2,22L28.2,22z M45.1,22.2
	c-4.5,0-8-3.4-8-7.8c-0.1-4.3,3.5-7.8,8-7.8c4.6,0,8,3.4,8,7.8S49.6,22.2,45.1,22.2z M45.1,10.1c-2.4,0-4.2,1.9-4.2,4.4
	s1.8,4.4,4.2,4.4s4.2-1.9,4.2-4.4S47.5,10.1,45.1,10.1z M64.9,16.3c1-0.1,3.9-1.1,3.9-4.5C68.8,8.7,66.6,7,63,7h-7.1v14.9h3.6V10.1
	h3.2c1.5,0,2.5,0.7,2.5,1.9s-1,2-2.6,2h-3.2l5.5,8h4C69,21.9,64.9,16.3,64.9,16.3z M0.3,22h11.8v-3.2h-5l2.3-2.5
	c1.4-1.5,2.4-2.6,2.4-4.8c0-3-2.2-4.9-5.3-4.9c-3.4,0-5.8,2.4-5.3,6h3.2c-0.3-1.9,0.6-3,2.1-3c1.2,0,2,0.9,2,2.1
	c0,1.4-1.2,2.5-2.4,3.8L0.3,22z M80.8,16.3c1-0.1,3.9-1.1,3.9-4.5c0-3.1-2.2-4.8-5.8-4.8h-7.1v14.9h3.6V10.1h3.2
	c1.6,0,2.5,0.7,2.5,1.9s-1,2-2.6,2h-3.2l5.5,8h4L80.8,16.3L80.8,16.3z"/>
</svg>
