<svg width="48" height="48" viewBox="0 0 48 48" fill="none" xmlns="http://www.w3.org/2000/svg">
<path d="M10.4727 4.43011L24 3L37.5272 4.43011L48 18.4888L24 46.4365L0 18.4888L10.4727 4.43011Z" fill="#FDB300"/>
<path d="M9.7212 18.4888L24 46.4365L0 18.4888H9.7212Z" fill="#EA6C00"/>
<path d="M38.2788 18.4888L24 46.4365L48 18.4888H38.2788Z" fill="#EA6C00"/>
<path d="M9.7207 18.4888H38.2783L23.9995 46.4365L9.7207 18.4888Z" fill="#FDAD00"/>
<path d="M23.9995 3L10.4722 4.43009L9.7207 18.4888L23.9995 3Z" fill="#FDD231"/>
<path d="M24 3L37.5273 4.43009L38.2788 18.4888L24 3Z" fill="#FDD231"/>
<path d="M48 18.4889L37.5272 4.43018L38.2788 18.4889H48ZM0 18.4889L10.4727 4.43018L9.7212 18.4889H0Z" fill="#FDAD00"/>
<path d="M23.9995 3L9.7207 18.4888H38.2783L23.9995 3Z" fill="#FEEEB7"/>
</svg>
