<svg width="48" height="48" viewBox="0 0 48 48" fill="none" xmlns="http://www.w3.org/2000/svg">
<path d="M27.6 3.60539C26.4 3.60539 25.3417 3.53455 24.6 3.90539C23.4 4.50539 22.2 9.30539 22.2 9.30539M18 23.1054C18 22.2054 22.2 9.30539 22.2 9.30539M22.2 9.30539H25.2C25.2 9.30539 29.1 22.2054 29.1 23.1054" stroke="#212121" stroke-width="2"/>
<path d="M23.8502 26.4H19.2752H14.7002C14.7002 26.4 14.7002 35.4 19.2752 35.4C23.8502 35.4 23.8502 26.4 23.8502 26.4ZM23.8502 26.4H28.4252H33.0002C33.0002 26.4 33.0002 35.4 28.4252 35.4C23.8502 35.4 23.8502 26.4 23.8502 26.4Z" stroke="#212121" stroke-width="2"/>
<path d="M13.5 38.4C16.9233 45.8432 31.0706 45.8868 34.2 38.4" stroke="#212121" stroke-width="2"/>
</svg>
