<?xml version="1.0" encoding="utf-8"?>
<!-- Generator: Adobe Illustrator 15.1.0, SVG Export Plug-In . SVG Version: 6.00 Build 0)  -->
<!DOCTYPE svg PUBLIC "-//W3C//DTD SVG 1.1//EN" "http://www.w3.org/Graphics/SVG/1.1/DTD/svg11.dtd">
<svg version="1.1" id="Layer_1" xmlns="http://www.w3.org/2000/svg" xmlns:xlink="http://www.w3.org/1999/xlink" x="0px" y="0px"
	 width="300px" height="130px" viewBox="0 0 300 130" enable-background="new 0 0 300 130" xml:space="preserve">
<g>
	<path d="M9.386,68.759v7.232h8.002v-7.232h2.333v16.845h-2.333v-7.605H9.386v7.605H7.053V68.759H9.386z"/>
	<path d="M28.987,73.588c4.689,0,5.739,3.687,5.739,6.137c0,3.43-1.937,6.275-5.926,6.275c-3.873,0-5.763-2.684-5.763-6.112
		C23.038,76.994,24.391,73.588,28.987,73.588z M28.847,84.367c1.657,0,3.546-1.189,3.546-4.713c0-2.916-1.353-4.456-3.406-4.456
		c-1.4,0-3.663,0.886-3.663,4.55C25.324,82.15,26.351,84.367,28.847,84.367z"/>
	<path d="M44.831,77.648c-0.046-0.537-0.21-2.45-2.333-2.45c-3.033,0-3.033,3.522-3.033,4.409c0,2.403,0.583,4.643,2.917,4.643
		c1.867,0,2.497-1.399,2.543-2.543h2.217c-0.14,2.287-1.843,4.199-4.736,4.199c-0.793,0-2.613-0.162-3.85-1.516
		c-0.7-0.816-1.4-2.053-1.4-4.48c0-4.875,2.986-6.322,5.319-6.322c0.77,0,2.52,0.164,3.593,1.447
		c0.863,1.003,0.933,1.959,0.979,2.613H44.831z"/>
	<path d="M48.66,68.782h2.216v6.836c0.723-1.237,2.17-1.937,3.803-1.937c1.237,0,3.01,0.443,3.687,1.866
		c0.233,0.467,0.396,1.026,0.396,2.729v7.326h-2.24v-6.93c0-1.049,0-3.313-2.52-3.313c-1.633,0-2.45,1.004-2.753,1.563
		c-0.373,0.654-0.373,1.75-0.373,2.474v6.206H48.66V68.782z"/>
	<path d="M64.177,82.127c-0.023,0.887,0.443,2.123,2.566,2.123c0.91,0,1.586-0.163,2.053-0.746c0.233-0.303,0.373-0.7,0.373-1.097
		c0-1.144-0.816-1.353-2.566-1.75c-2.45-0.56-4.503-1.05-4.503-3.499c0-2.146,1.867-3.547,4.573-3.547c1.47,0,3.522,0.42,4.223,1.82
		c0.303,0.652,0.303,1.213,0.303,1.703h-2.24c0.07-1.773-1.47-1.914-2.263-1.914c-0.327,0-2.379,0-2.379,1.681
		c0,1.073,1.05,1.329,1.656,1.493c3.243,0.77,3.943,0.957,4.643,1.609c0.653,0.607,0.886,1.424,0.886,2.17
		c0,1.307-0.723,2.426-1.586,2.963c-1.026,0.63-2.263,0.793-3.476,0.793c-2.38,0-4.596-0.979-4.573-3.803H64.177z"/>
	<path d="M81.258,77.648c-0.046-0.537-0.21-2.45-2.333-2.45c-3.033,0-3.033,3.522-3.033,4.409c0,2.403,0.583,4.643,2.917,4.643
		c1.867,0,2.497-1.399,2.543-2.543h2.217c-0.14,2.287-1.843,4.199-4.736,4.199c-0.793,0-2.613-0.162-3.85-1.516
		c-0.7-0.816-1.4-2.053-1.4-4.48c0-4.875,2.986-6.322,5.319-6.322c0.77,0,2.52,0.164,3.593,1.447
		c0.863,1.003,0.933,1.959,0.979,2.613H81.258z"/>
	<path d="M85.086,68.782h2.216v6.836c0.723-1.237,2.17-1.937,3.803-1.937c1.237,0,3.01,0.443,3.687,1.866
		c0.233,0.467,0.396,1.026,0.396,2.729v7.326h-2.24v-6.93c0-1.049,0-3.313-2.52-3.313c-1.633,0-2.45,1.004-2.753,1.563
		c-0.373,0.654-0.373,1.75-0.373,2.474v6.206h-2.216V68.782z"/>
	<path d="M101.351,73.892v7.536c0,1.143,0.257,2.59,2.497,2.59c1.096,0,2.123-0.374,2.753-1.307c0.49-0.7,0.49-1.61,0.49-2.193
		v-6.626h2.263v9.519c0,0.233,0.046,1.54,0.07,2.193h-2.286l-0.047-2.006c-0.42,0.816-1.213,2.123-3.733,2.123
		c-2.893,0-4.246-1.657-4.246-3.967v-7.862H101.351z"/>
	<path d="M113.648,68.782h2.193v16.821h-2.193V68.782z"/>
	<path d="M121.419,80.145c-0.046,2.426,0.957,4.223,3.36,4.223c1.423,0,2.566-0.746,2.753-2.427h2.193
		c-0.07,0.583-0.163,1.54-1.003,2.45c-0.513,0.583-1.68,1.563-4.036,1.563c-3.687,0-5.436-2.286-5.436-5.996
		c0-2.309,0.466-4.223,2.31-5.506c1.12-0.793,2.52-0.863,3.196-0.863c5.25,0,5.133,4.643,5.086,6.557H121.419z M127.602,78.604
		c0.023-1.12-0.187-3.453-2.893-3.453c-1.423,0-3.149,0.863-3.196,3.453H127.602z"/>
	<path d="M145.407,70.393c-0.374-0.023-0.84-0.047-1.283-0.047c-1.773,0-1.773,0.887-1.773,1.703v1.843h2.729v1.587h-2.729v10.125
		h-2.17V75.479h-2.31v-1.587h2.31v-1.33c0-1.61,0.093-2.192,0.49-2.8c0.49-0.746,1.423-1.283,2.94-1.283
		c0.63,0,1.33,0.094,1.796,0.164V70.393z"/>
	<path d="M149.328,73.892v7.536c0,1.143,0.257,2.59,2.497,2.59c1.096,0,2.123-0.374,2.753-1.307c0.489-0.7,0.489-1.61,0.489-2.193
		v-6.626h2.264v9.519c0,0.233,0.047,1.54,0.07,2.193h-2.287l-0.047-2.006c-0.42,0.816-1.213,2.123-3.732,2.123
		c-2.893,0-4.246-1.657-4.246-3.967v-7.862H149.328z M149.094,68.828h2.146v2.381h-2.146V68.828z M153.504,68.828h2.17v2.381h-2.17
		V68.828z"/>
	<path d="M161.695,76.271c0-0.793-0.047-1.609-0.116-2.38h2.216l0.047,2.263c0.42-1.633,1.82-2.17,2.8-2.31
		c0.653-0.093,1.144-0.069,1.517-0.046v2.146c-0.117-0.047-0.257-0.07-0.42-0.094s-0.373-0.023-0.63-0.023
		c-2.59,0-3.196,1.539-3.196,3.546v6.229h-2.217V76.271z"/>
	<path d="M188.553,72.959c-0.258-1.564-1.518-2.637-3.804-2.637c-1.587,0-2.916,0.42-3.803,1.423
		c-1.47,1.634-1.796,3.826-1.796,5.413c0,1.423,0.303,3.826,1.539,5.296c1.097,1.26,2.8,1.656,4.479,1.656
		c1.913,0,3.126-0.374,3.663-0.536v-4.993h-3.85v-1.937h6.183v8.306c-0.979,0.327-3.126,1.026-5.996,1.026
		c-3.103,0-4.923-0.887-6.112-2.1c-1.656-1.68-2.356-4.036-2.356-6.416c0-1.68,0.42-5.646,3.616-7.793
		c1.656-1.119,3.85-1.189,4.689-1.189c1.33,0,3.359,0.164,4.969,1.797c1.004,1.05,1.074,2.029,1.121,2.684H188.553z"/>
	<path d="M196.629,80.145c-0.047,2.426,0.956,4.223,3.359,4.223c1.423,0,2.566-0.746,2.753-2.427h2.192
		c-0.069,0.583-0.162,1.54-1.002,2.45c-0.514,0.583-1.68,1.563-4.037,1.563c-3.686,0-5.436-2.286-5.436-5.996
		c0-2.309,0.467-4.223,2.31-5.506c1.12-0.793,2.52-0.863,3.196-0.863c5.25,0,5.133,4.643,5.086,6.557H196.629z M202.811,78.604
		c0.023-1.12-0.186-3.453-2.893-3.453c-1.423,0-3.149,0.863-3.196,3.453H202.811z"/>
	<path d="M209.533,82.127c-0.023,0.887,0.443,2.123,2.566,2.123c0.909,0,1.586-0.163,2.053-0.746c0.232-0.303,0.373-0.7,0.373-1.097
		c0-1.144-0.816-1.353-2.566-1.75c-2.449-0.56-4.503-1.05-4.503-3.499c0-2.146,1.866-3.547,4.573-3.547
		c1.47,0,3.522,0.42,4.223,1.82c0.303,0.652,0.303,1.213,0.303,1.703h-2.239c0.069-1.773-1.47-1.914-2.263-1.914
		c-0.327,0-2.38,0-2.38,1.681c0,1.073,1.05,1.329,1.656,1.493c3.243,0.77,3.942,0.957,4.644,1.609
		c0.652,0.607,0.886,1.424,0.886,2.17c0,1.307-0.724,2.426-1.587,2.963c-1.025,0.63-2.263,0.793-3.476,0.793
		c-2.38,0-4.597-0.979-4.573-3.803H209.533z"/>
	<path d="M218.145,73.845h2.076v-2.45l2.17-0.699v3.149h2.613v1.61h-2.613v7.021c0,0.584,0,1.564,1.563,1.564
		c0.443,0,0.863-0.07,1.051-0.117v1.703c-0.396,0.07-1.027,0.14-1.82,0.14c-2.006,0-2.963-0.583-2.963-2.496v-7.815h-2.076V73.845z"
		/>
	<path d="M234.851,85.604c-0.164-0.584-0.21-1.143-0.21-1.75c-1.05,1.937-2.637,2.123-3.616,2.123c-2.684,0-4.13-1.516-4.13-3.453
		c0-0.933,0.326-2.426,2.053-3.43c1.26-0.699,3.127-0.77,4.06-0.77c0.561,0,0.91,0.023,1.587,0.07c0-1.447,0-2.076-0.42-2.59
		c-0.443-0.584-1.4-0.77-2.03-0.77c-2.216,0-2.333,1.516-2.356,1.982h-2.192c0.069-0.606,0.14-1.423,0.816-2.217
		c0.887-0.979,2.543-1.26,3.779-1.26c1.703,0,3.523,0.537,4.153,1.727c0.373,0.7,0.396,1.26,0.396,1.797l-0.094,5.6
		c0,0.187,0.023,1.75,0.187,2.939H234.851z M233.334,79.841c-0.887,0-4.223,0-4.223,2.38c0,0.746,0.466,2.029,2.426,2.029
		c1.12,0,1.96-0.443,2.496-1.26c0.49-0.793,0.514-1.446,0.561-3.08C234.197,79.864,233.87,79.841,233.334,79.841z"/>
	<path d="M240.731,68.782h2.193v16.821h-2.193V68.782z"/>
	<path d="M245.376,73.845h2.076v-2.45l2.17-0.699v3.149h2.613v1.61h-2.613v7.021c0,0.584,0,1.564,1.563,1.564
		c0.443,0,0.863-0.07,1.05-0.117v1.703c-0.396,0.07-1.026,0.14-1.82,0.14c-2.006,0-2.963-0.583-2.963-2.496v-7.815h-2.076V73.845z"
		/>
	<path d="M256.949,73.892v7.536c0,1.143,0.257,2.59,2.497,2.59c1.096,0,2.123-0.374,2.753-1.307c0.489-0.7,0.489-1.61,0.489-2.193
		v-6.626h2.264v9.519c0,0.233,0.046,1.54,0.069,2.193h-2.286l-0.047-2.006c-0.42,0.816-1.213,2.123-3.732,2.123
		c-2.894,0-4.246-1.657-4.246-3.967v-7.862H256.949z"/>
	<path d="M269.271,75.244l-0.023-1.353h2.193l0.023,1.89c0.257-0.49,1.097-2.123,3.756-2.123c1.05,0,4.247,0.396,4.247,3.99v7.955
		h-2.24v-7.442c0-0.771-0.094-1.47-0.63-2.007c-0.56-0.536-1.33-0.793-2.076-0.793c-1.587,0-3.057,1.143-3.057,3.5v6.742h-2.193
		V75.244z"/>
	<path d="M285.559,86.514c0.093,1.307,0.653,2.286,2.729,2.286c3.057,0,3.103-2.216,3.103-5.39c-0.933,1.937-3.149,1.983-3.85,1.983
		c-1.072,0-2.612-0.233-3.593-1.446c-1.003-1.189-1.329-2.754-1.329-4.316c0-3.967,2.333-5.902,5.202-5.902
		c2.356,0,3.22,1.166,3.687,1.773l0.023-1.61h2.123l-0.047,2.123l-0.023,7.325c0,2.824-0.093,3.967-0.56,4.854
		c-0.98,1.866-3.267,2.1-4.876,2.1c-4.689,0-4.83-2.193-4.923-3.779H285.559z M290.668,82.594c0.467-0.606,0.793-1.236,0.793-3.359
		c0-1.471-0.326-2.311-0.91-2.916c-0.583-0.631-1.517-1.027-2.52-1.027c-2.776,0-3.149,2.8-3.149,4.293
		c0,1.797,0.536,4.176,3.22,4.176C289.385,83.76,290.131,83.294,290.668,82.594z"/>
	<path d="M8.733,108.684c0.047,1.166,0.187,3.336,4.06,3.336c3.5,0,3.943-2.17,3.943-3.01c0-1.89-1.517-2.264-3.873-2.846
		c-2.566-0.631-3.709-0.91-4.573-1.494c-1.376-0.933-1.75-2.193-1.75-3.313c0-3.43,3.243-4.923,6.416-4.923
		c1.12,0,3.383,0.187,4.736,1.656c0.933,1.026,0.98,2.17,1.026,2.87h-2.426c-0.117-2.1-1.89-2.566-3.546-2.566
		c-2.333,0-3.733,1.05-3.733,2.729c0,1.493,0.98,2.007,3.033,2.497c4.013,1.025,4.456,1.119,5.436,1.772
		c1.563,1.026,1.68,2.659,1.68,3.36c0,2.986-2.333,5.248-6.649,5.248c-1.283,0-3.896-0.209-5.226-1.912
		c-0.957-1.236-0.98-2.59-0.98-3.406H8.733z"/>
	<path d="M28.824,105.65c-0.046-0.537-0.21-2.449-2.333-2.449c-3.033,0-3.033,3.522-3.033,4.408c0,2.404,0.583,4.644,2.916,4.644
		c1.867,0,2.497-1.399,2.543-2.543h2.217c-0.14,2.286-1.843,4.199-4.736,4.199c-0.793,0-2.613-0.163-3.85-1.517
		c-0.7-0.816-1.4-2.053-1.4-4.479c0-4.876,2.986-6.322,5.319-6.322c0.77,0,2.52,0.163,3.593,1.446
		c0.863,1.004,0.933,1.96,0.979,2.613H28.824z"/>
	<path d="M32.652,96.785h2.216v6.836c0.723-1.237,2.17-1.938,3.803-1.938c1.237,0,3.01,0.443,3.687,1.867
		c0.233,0.467,0.396,1.026,0.396,2.729v7.325h-2.24v-6.929c0-1.05,0-3.313-2.52-3.313c-1.633,0-2.45,1.004-2.753,1.563
		c-0.373,0.653-0.373,1.75-0.373,2.474v6.205h-2.216V96.785z"/>
	<path d="M47.54,101.895l2.823,9.332l2.963-9.332h2.87l2.66,9.238l2.939-9.238h2.263l-4.129,11.711h-2.52l-2.753-9.635l-3.056,9.635
		h-2.59l-3.873-11.711H47.54z"/>
	<path d="M73.021,113.605c-0.164-0.583-0.21-1.143-0.21-1.75c-1.05,1.938-2.636,2.123-3.616,2.123c-2.683,0-4.13-1.516-4.13-3.452
		c0-0.933,0.327-2.427,2.053-3.43c1.26-0.7,3.126-0.771,4.06-0.771c0.56,0,0.91,0.023,1.586,0.07c0-1.446,0-2.076-0.42-2.59
		c-0.443-0.583-1.4-0.77-2.03-0.77c-2.216,0-2.333,1.517-2.356,1.982h-2.193c0.07-0.605,0.14-1.422,0.816-2.216
		c0.887-0.979,2.543-1.26,3.78-1.26c1.703,0,3.523,0.536,4.153,1.727c0.373,0.7,0.396,1.26,0.396,1.796l-0.093,5.6
		c0,0.188,0.023,1.75,0.187,2.939H73.021z M67.001,96.831h2.146v2.38h-2.146V96.831z M71.504,107.844c-0.887,0-4.223,0-4.223,2.379
		c0,0.747,0.466,2.03,2.426,2.03c1.12,0,1.96-0.443,2.496-1.261c0.49-0.793,0.514-1.445,0.56-3.079
		C72.368,107.867,72.041,107.844,71.504,107.844z M71.411,96.831h2.17v2.38h-2.17V96.831z"/>
	<path d="M81.049,103.598c0.303-0.537,1.167-2.007,3.826-2.007c1.167,0,2.637,0.28,3.71,1.493c0.583,0.676,1.376,1.843,1.376,4.409
		c0,2.263-0.537,3.499-1.12,4.27c-0.933,1.33-2.496,2.007-4.106,2.007c-0.56,0-1.61-0.07-2.613-0.747
		c-0.653-0.442-0.91-0.84-1.143-1.189l-0.047,1.772H78.81l0.047-2.1V96.762h2.193V103.598z M84.362,103.084
		c-3.359,0-3.359,3.92-3.359,4.666c0,0.77,0,4.433,3.266,4.433c2.707,0,3.383-2.636,3.383-4.55
		C87.652,106.467,87.418,103.084,84.362,103.084z"/>
	<path d="M92.904,96.809h2.636v2.402h-2.636V96.809z M93.138,101.895h2.193v11.711h-2.193V101.895z"/>
	<path d="M100.861,110.13c-0.023,0.886,0.443,2.123,2.566,2.123c0.91,0,1.586-0.163,2.053-0.747
		c0.233-0.303,0.373-0.699,0.373-1.096c0-1.144-0.816-1.354-2.566-1.75c-2.45-0.561-4.503-1.051-4.503-3.5
		c0-2.146,1.867-3.547,4.573-3.547c1.47,0,3.523,0.42,4.223,1.82c0.303,0.653,0.303,1.213,0.303,1.703h-2.24
		c0.07-1.773-1.47-1.913-2.263-1.913c-0.327,0-2.379,0-2.379,1.681c0,1.072,1.05,1.329,1.656,1.492
		c3.243,0.77,3.943,0.957,4.643,1.609c0.653,0.607,0.886,1.424,0.886,2.17c0,1.307-0.723,2.427-1.586,2.963
		c-1.026,0.631-2.263,0.794-3.476,0.794c-2.38,0-4.596-0.979-4.573-3.803H100.861z"/>
	<path d="M117.941,105.65c-0.046-0.537-0.21-2.449-2.333-2.449c-3.033,0-3.033,3.522-3.033,4.408c0,2.404,0.583,4.644,2.917,4.644
		c1.867,0,2.497-1.399,2.543-2.543h2.217c-0.14,2.286-1.843,4.199-4.736,4.199c-0.793,0-2.613-0.163-3.85-1.517
		c-0.7-0.816-1.4-2.053-1.4-4.479c0-4.876,2.986-6.322,5.319-6.322c0.77,0,2.52,0.163,3.593,1.446
		c0.863,1.004,0.933,1.96,0.979,2.613H117.941z"/>
	<path d="M121.771,96.785h2.216v6.836c0.723-1.237,2.17-1.938,3.803-1.938c1.237,0,3.01,0.443,3.687,1.867
		c0.233,0.467,0.396,1.026,0.396,2.729v7.325h-2.24v-6.929c0-1.05,0-3.313-2.52-3.313c-1.633,0-2.45,1.004-2.753,1.563
		c-0.373,0.653-0.373,1.75-0.373,2.474v6.205h-2.216V96.785z"/>
	<path d="M153.924,100.961c-0.257-1.563-1.517-2.637-3.803-2.637c-1.586,0-2.916,0.42-3.803,1.424
		c-1.47,1.633-1.796,3.826-1.796,5.412c0,1.424,0.303,3.826,1.54,5.297c1.096,1.26,2.799,1.656,4.479,1.656
		c1.913,0,3.126-0.373,3.662-0.537v-4.992h-3.849v-1.938h6.183v8.307c-0.98,0.326-3.127,1.025-5.996,1.025
		c-3.103,0-4.923-0.886-6.113-2.1c-1.657-1.68-2.356-4.035-2.356-6.416c0-1.68,0.42-5.646,3.616-7.792
		c1.656-1.12,3.85-1.189,4.689-1.189c1.33,0,3.36,0.163,4.969,1.796c1.003,1.051,1.073,2.03,1.12,2.684H153.924z"/>
	<path d="M160.646,103.457l-0.047-1.563h2.217v1.703c1.12-1.844,2.707-2.007,3.71-2.007c2.59,0,3.406,1.329,3.826,2.192
		c0.396-0.652,1.353-2.192,3.942-2.192c1.68,0,4.293,0.7,4.293,4.153v7.861h-2.216v-7.512c0-1.027-0.187-1.471-0.397-1.773
		c-0.373-0.537-1.119-1.026-2.239-1.026c-1.423,0-2.192,0.816-2.496,1.236c-0.514,0.724-0.514,2.007-0.514,2.52v6.556h-2.216v-7.745
		c0-1.446-0.84-2.566-2.566-2.566c-1.494,0-2.311,0.933-2.566,1.283c-0.49,0.677-0.514,1.633-0.514,2.38v6.648h-2.217V103.457z"/>
	<path d="M184.705,101.895v7.535c0,1.143,0.256,2.59,2.496,2.59c1.096,0,2.123-0.373,2.753-1.307
		c0.489-0.699,0.489-1.609,0.489-2.193v-6.625h2.264v9.519c0,0.233,0.047,1.54,0.07,2.192h-2.287l-0.047-2.006
		c-0.42,0.816-1.213,2.123-3.732,2.123c-2.893,0-4.246-1.656-4.246-3.967v-7.861H184.705z M184.471,96.831h2.146v2.38h-2.146V96.831
		z M188.881,96.831h2.17v2.38h-2.17V96.831z"/>
	<path d="M197.025,103.247l-0.023-1.353h2.193l0.023,1.889c0.257-0.489,1.097-2.123,3.756-2.123c1.051,0,4.247,0.396,4.247,3.99
		v7.955h-2.24v-7.441c0-0.771-0.093-1.471-0.63-2.007c-0.56-0.536-1.33-0.794-2.076-0.794c-1.586,0-3.057,1.144-3.057,3.5v6.742
		h-2.193V103.247z"/>
	<path d="M219.333,96.785h2.192v14.955c0,0.256,0.047,1.26,0.094,1.865h-2.193l-0.047-1.865c-0.186,0.326-0.443,0.816-1.049,1.236
		c-0.957,0.652-2.1,0.863-2.894,0.863c-1.563,0-5.04-0.817-5.04-5.949c0-4.457,2.544-6.393,5.297-6.393
		c2.52,0,3.359,1.492,3.64,1.982V96.785z M218.516,104.32c-0.466-0.606-1.329-1.189-2.566-1.189c-3.219,0-3.219,3.896-3.219,4.689
		c0,2.076,0.536,4.479,3.219,4.479c3.453,0,3.453-3.803,3.453-4.713C219.402,105.883,219.006,104.95,218.516,104.32z"/>
</g>
<path fill="#E31F26" d="M9.386,14.724v7.232h8.002v-7.232h2.333v16.845h-2.333v-7.606H9.386v7.606H7.053V14.724H9.386z"/>
<path fill="#E31F26" d="M145.407,16.357c-0.374-0.023-0.84-0.047-1.283-0.047c-1.773,0-1.773,0.887-1.773,1.703v1.843h2.729v1.586
	h-2.729v10.125h-2.17V21.443h-2.31v-1.586h2.31v-1.33c0-1.61,0.093-2.193,0.49-2.799c0.49-0.747,1.423-1.283,2.94-1.283
	c0.63,0,1.33,0.093,1.796,0.163V16.357z"/>
<path fill="#E31F26" d="M188.553,18.924c-0.258-1.563-1.518-2.637-3.804-2.637c-1.587,0-2.916,0.42-3.803,1.423
	c-1.47,1.633-1.796,3.826-1.796,5.413c0,1.423,0.303,3.826,1.539,5.296c1.097,1.26,2.8,1.656,4.479,1.656
	c1.913,0,3.126-0.374,3.663-0.537v-4.993h-3.85V22.61h6.183v8.306c-0.979,0.327-3.126,1.027-5.996,1.027
	c-3.103,0-4.923-0.887-6.112-2.1c-1.656-1.68-2.356-4.036-2.356-6.416c0-1.68,0.42-5.646,3.616-7.792
	c1.656-1.12,3.85-1.189,4.689-1.189c1.33,0,3.359,0.163,4.969,1.796c1.004,1.05,1.074,2.03,1.121,2.683H188.553z"/>
</svg>
