<svg width="264" height="264" viewBox="0 0 264 264" fill="none" xmlns="http://www.w3.org/2000/svg">
<rect x="36" y="36" width="96" height="96" fill="#8459FF"/>
<rect x="215" y="45" width="42" height="42" fill="#26E9DD"/>
<path d="M61 101.5C61 81.8939 76.8939 66 96.5 66" stroke="#222222" stroke-width="3"/>
<path d="M227.48 81C227.48 88.9412 221.096 97.4345 208.681 100.761" stroke="#222222" stroke-width="3"/>
<path d="M165.267 155.553L231.692 221.979L222.5 231.171L155.075 163.746L152.954 165.867L222.5 235.414L235.853 222.061L167.388 153.432L165.267 155.553Z" fill="#212121"/>
<path d="M187.822 100.031L205.763 117.972M187.822 100.031L166.609 121.244M187.822 100.031L192.017 104.225C192.017 104.225 192.04 85.4603 203 74.5001C212.002 65.4983 219.238 66.5024 227 67.0001C242.596 68.0002 237.5 53.5001 237.5 53.5001C246 60.5 247.5 80.5 237.5 95.5001C223.167 117 201.473 113.681 201.473 113.681L205.763 117.972M205.763 117.972L184.55 139.185M166.609 121.244L122.061 172.863L67.1997 238.594L132.931 183.733L184.55 139.185M166.609 121.244L184.55 139.185" stroke="#212121" stroke-width="3"/>
<path d="M121.5 174.191C114.117 176.661 106.215 178 98 178C57.1309 178 24 144.869 24 104C24 63.1309 57.1309 30 98 30C138.869 30 172 63.1309 172 104C172 108.786 171.546 113.467 170.678 118" stroke="#212121" stroke-width="3"/>
<rect x="41.5" y="47.5" width="113" height="113" rx="56.5" stroke="#212121" stroke-width="3"/>
</svg>
