<svg width="264" height="264" viewBox="0 0 264 264" fill="none" xmlns="http://www.w3.org/2000/svg">
<g clip-path="url(#clip0_2020_1656)">
<rect x="60" y="79" width="100" height="100" fill="#8459FF"/>
<path d="M93.5 175C52.3548 175 19 141.645 19 100.5C19 59.3548 52.3548 26 93.5 26C130.386 26 161.01 52.8061 166.956 88" stroke="#222222" stroke-width="3"/>
<path d="M109 153.93C104.232 155.278 99.2001 156 94 156C63.6243 156 39 131.376 39 101C39 70.6243 63.6243 46 94 46C124.376 46 149 70.6243 149 101C149 103.371 148.85 105.708 148.559 108" stroke="#222222" stroke-width="3"/>
<path d="M60 100.5C60 80.8939 75.8939 65 95.5 65" stroke="#222222" stroke-width="3"/>
<path d="M228.48 75C228.48 82.9412 222.096 91.4345 209.681 94.7611" stroke="#222222" stroke-width="3"/>
<path d="M165.267 155.553L231.692 221.979L222.5 231.171L155.075 163.746L152.954 165.867L222.5 235.414L235.853 222.061L167.388 153.432L165.267 155.553Z" fill="#212121"/>
<path d="M171.822 84.0305L205.763 117.972M171.822 84.0305L150.609 105.244M171.822 84.0305L176.017 88.2254C176.017 88.2254 175.54 70.4602 186.5 59.5C195.502 50.4982 207.721 55.5 215.5 55.5C232.151 55.5 234.5 34.5 234.5 34.5C242.632 45.4602 245.29 75.8986 237.182 92.1145C227.99 110.499 201.473 113.681 201.473 113.681L205.763 117.972M205.763 117.972L184.55 139.185M150.609 105.244L106.061 156.862L53.1999 236.594L132.931 183.733L184.55 139.185M150.609 105.244L184.55 139.185" stroke="#212121" stroke-width="3"/>
</g>
<defs>
<clipPath id="clip0_2020_1656">
<rect width="264" height="264" fill="white"/>
</clipPath>
</defs>
</svg>
