<?xml version="1.0" standalone="no"?>
<!DOCTYPE svg PUBLIC "-//W3C//DTD SVG 20010904//EN"
 "http://www.w3.org/TR/2001/REC-SVG-20010904/DTD/svg10.dtd">
<svg version="1.0" xmlns="http://www.w3.org/2000/svg"
 width="500.000000pt" height="500.000000pt" viewBox="0 0 500.000000 500.000000"
 preserveAspectRatio="xMidYMid meet">
<metadata>
Created by potrace 1.14, written by Peter Selinger 2001-2017
</metadata>
<g transform="translate(0.000000,500.000000) scale(0.100000,-0.100000)"
fill="#000000" stroke="none">
<path d="M2320 4994 c-19 -2 -78 -9 -130 -15 -467 -53 -946 -265 -1315 -581
-471 -404 -769 -957 -856 -1588 -17 -122 -18 -497 -1 -615 58 -412 185 -751
407 -1085 397 -598 1032 -990 1765 -1091 122 -17 497 -18 615 -1 412 58 751
185 1085 407 598 397 990 1032 1091 1765 17 122 18 497 1 615 -58 412 -185
751 -407 1085 -391 588 -1016 981 -1730 1086 -96 14 -453 27 -525 18z m480
-618 l0 -83 -104 -5 c-67 -3 -111 -10 -121 -18 -23 -19 -61 -98 -101 -207 -19
-52 -34 -96 -34 -98 0 -2 48 -6 107 -7 l107 -3 19 -60 c115 -377 315 -1075
341 -1197 l6 -28 -88 0 -89 0 -33 128 c-30 119 -178 631 -252 877 l-34 110
-68 0 -68 0 -65 -200 c-95 -297 -238 -760 -259 -842 l-18 -73 -88 0 c-48 0
-88 4 -88 9 0 36 96 357 280 936 54 171 115 364 135 430 20 66 52 153 70 192
83 180 147 221 343 222 l102 1 0 -84z m560 -1989 c0 -107 -26 -309 -54 -417
-33 -129 -60 -197 -105 -266 -69 -105 -136 -160 -231 -188 -184 -55 -359 39
-461 247 l-38 78 -36 -75 c-51 -103 -129 -187 -213 -228 -60 -30 -75 -33 -157
-33 -78 0 -97 4 -146 28 -67 33 -141 104 -188 182 -85 141 -151 435 -151 676
l0 69 890 0 890 0 0 -73z m-1686 -1087 c118 -191 344 -323 626 -365 405 -62
807 87 960 353 19 34 40 62 46 62 6 0 36 -11 65 -23 30 -13 62 -27 72 -30 17
-6 16 -9 -4 -49 -55 -109 -166 -233 -275 -309 -80 -55 -231 -120 -352 -151
-99 -26 -142 -31 -277 -35 -380 -12 -691 98 -902 320 -63 67 -143 182 -143
208 0 5 33 25 73 43 39 19 72 35 73 35 1 1 18 -26 38 -59z"/>
<path d="M1760 2261 c0 -50 38 -253 60 -321 66 -200 170 -290 297 -258 128 32
223 234 258 551 l6 57 -310 0 -311 0 0 -29z"/>
<path d="M2565 2228 c28 -269 113 -475 217 -530 109 -56 222 -7 290 126 48 95
108 336 108 437 l0 29 -310 0 -311 0 6 -62z"/>
</g>
</svg>
